<svg width="99" height="78" viewBox="0 0 99 78" fill="none" xmlns="http://www.w3.org/2000/svg">
<rect x="0.5" width="98" height="78" rx="20" fill="#F4F4F4"/>
<path d="M58.1567 31.1275C58.1567 30.912 58.2423 30.7053 58.3947 30.553C58.547 30.4006 58.7537 30.315 58.9692 30.315H74.6875C74.903 30.315 75.1097 30.4006 75.262 30.553C75.4144 30.7053 75.5 30.912 75.5 31.1275C75.5 31.343 75.4144 31.5496 75.262 31.702C75.1097 31.8544 74.903 31.94 74.6875 31.94H58.9692C58.7537 31.94 58.547 31.8544 58.3947 31.702C58.2423 31.5496 58.1567 31.343 58.1567 31.1275ZM23.5 24.4369C23.5 18.1306 28.6305 13 34.9368 13C41.243 13 46.3735 18.1306 46.3735 24.4369C46.3735 30.7431 41.243 35.8736 34.9368 35.8736C28.6305 35.8736 23.5 30.7431 23.5 24.4369ZM44.7142 25.2536L36.3572 25.25L40.5904 32.4515C42.8951 30.821 44.4684 28.2228 44.7142 25.2536ZM35.7493 14.6589V23.6247L44.7149 23.6286C44.3246 18.8631 40.5142 15.0515 35.7493 14.6589ZM25.125 24.4369C25.125 29.8471 29.5265 34.2486 34.9368 34.2486C36.4601 34.2486 37.9034 33.8996 39.191 33.2775L34.2363 24.8486C34.1629 24.7238 34.1242 24.5816 34.1241 24.4369V14.6589C29.0927 15.0734 25.125 19.3002 25.125 24.4369ZM58.9692 15.1568H74.6875C74.903 15.1568 75.1097 15.0712 75.262 14.9188C75.4144 14.7664 75.5 14.5598 75.5 14.3443C75.5 14.1288 75.4144 13.9221 75.262 13.7698C75.1097 13.6174 74.903 13.5318 74.6875 13.5318H58.9692C58.7537 13.5318 58.547 13.6174 58.3947 13.7698C58.2423 13.9221 58.1567 14.1288 58.1567 14.3443C58.1567 14.5598 58.2423 14.7664 58.3947 14.9188C58.547 15.0712 58.7537 15.1568 58.9692 15.1568ZM58.9692 18.5585H66.8283C67.0438 18.5585 67.2504 18.4729 67.4028 18.3205C67.5552 18.1682 67.6408 17.9615 67.6408 17.746C67.6408 17.5305 67.5552 17.3239 67.4028 17.1715C67.2504 17.0191 67.0438 16.9335 66.8283 16.9335H58.9692C58.7537 16.9335 58.547 17.0191 58.3947 17.1715C58.2423 17.3239 58.1567 17.5305 58.1567 17.746C58.1567 17.9615 58.2423 18.1682 58.3947 18.3205C58.547 18.4729 58.7537 18.5585 58.9692 18.5585ZM50.0608 18.2778V13.8125C50.0608 13.597 50.1464 13.3903 50.2988 13.238C50.4512 13.0856 50.6578 13 50.8733 13H55.3386C55.5541 13 55.7608 13.0856 55.9132 13.238C56.0655 13.3903 56.1511 13.597 56.1511 13.8125V18.2778C56.1511 18.4933 56.0655 18.6999 55.9132 18.8523C55.7608 19.0047 55.5541 19.0903 55.3386 19.0903H50.8733C50.6578 19.0903 50.4512 19.0047 50.2988 18.8523C50.1464 18.6999 50.0608 18.4933 50.0608 18.2778ZM51.6858 17.4653H54.5261V14.625H51.6858V17.4653ZM58.9692 23.5484H74.6875C74.903 23.5484 75.1097 23.4628 75.262 23.3104C75.4144 23.158 75.5 22.9514 75.5 22.7359C75.5 22.5204 75.4144 22.3137 75.262 22.1614C75.1097 22.009 74.903 21.9234 74.6875 21.9234H58.9692C58.7537 21.9234 58.547 22.009 58.3947 22.1614C58.2423 22.3137 58.1567 22.5204 58.1567 22.7359C58.1567 22.9514 58.2423 23.158 58.3947 23.3104C58.547 23.4628 58.7537 23.5484 58.9692 23.5484ZM58.9692 26.9501H66.8283C67.0438 26.9501 67.2504 26.8645 67.4028 26.7121C67.5552 26.5598 67.6408 26.3531 67.6408 26.1376C67.6408 25.9221 67.5552 25.7155 67.4028 25.5631C67.2504 25.4107 67.0438 25.3251 66.8283 25.3251H58.9692C58.7537 25.3251 58.547 25.4107 58.3947 25.5631C58.2423 25.7155 58.1567 25.9221 58.1567 26.1376C58.1567 26.3531 58.2423 26.5598 58.3947 26.7121C58.547 26.8645 58.7537 26.9501 58.9692 26.9501ZM50.0608 26.6694V22.2041C50.0608 21.9886 50.1464 21.782 50.2988 21.6296C50.4512 21.4772 50.6578 21.3916 50.8733 21.3916H55.3386C55.5541 21.3916 55.7608 21.4772 55.9132 21.6296C56.0655 21.782 56.1511 21.9886 56.1511 22.2041V26.6694C56.1511 26.8849 56.0655 27.0915 55.9132 27.2439C55.7608 27.3963 55.5541 27.4819 55.3386 27.4819H50.8733C50.6578 27.4819 50.4512 27.3963 50.2988 27.2439C50.1464 27.0915 50.0608 26.8849 50.0608 26.6694ZM51.6858 25.8569H54.5261V23.0166H51.6858V25.8569ZM30.5302 45.6371V64.1875C30.5302 64.403 30.4446 64.6097 30.2922 64.762C30.1398 64.9144 29.9331 65 29.7177 65H24.3125C24.097 65 23.8903 64.9144 23.738 64.762C23.5856 64.6097 23.5 64.403 23.5 64.1875V45.6371C23.5 45.4216 23.5856 45.215 23.738 45.0626C23.8903 44.9102 24.097 44.8246 24.3125 44.8246H29.7177C29.9331 44.8246 30.1398 44.9102 30.2922 45.0626C30.4446 45.215 30.5302 45.4216 30.5302 45.6371ZM28.9052 46.4496H25.125V63.375H28.9052V46.4496ZM75.0032 60.2968L72.929 62.4343C72.7647 62.6038 72.568 62.7385 72.3505 62.8303C72.133 62.9222 71.8992 62.9693 71.6632 62.9689C71.2047 62.9696 70.764 62.7912 70.4352 62.4717L64.6904 56.897C64.3531 56.5699 64.1634 56.1298 64.1563 55.6579C64.1525 55.415 64.199 55.1739 64.2929 54.9498L62.0819 52.8043C61.299 53.3902 60.4432 53.8717 59.536 54.2368V64.1875C59.536 64.403 59.4504 64.6097 59.298 64.762C59.1456 64.9144 58.939 65 58.7235 65H53.3184C53.103 65 52.8963 64.9144 52.7439 64.762C52.5915 64.6097 52.5059 64.403 52.5059 64.1875V54.6856C51.5325 54.4324 50.5976 54.0493 49.7265 53.5466V64.1875C49.7265 64.403 49.6409 64.6097 49.4885 64.762C49.3361 64.9144 49.1295 65 48.914 65H43.5089C43.2934 65 43.0868 64.9144 42.9344 64.762C42.782 64.6097 42.6964 64.403 42.6964 64.1875V48.3793C42.6964 48.1638 42.782 47.9571 42.9344 47.8048C43.0868 47.6524 43.2934 47.5668 43.5089 47.5668H44.7247C44.2886 46.3495 44.0662 45.0661 44.0672 43.773C44.0672 39.4634 46.4983 35.7114 50.0608 33.8148V30.5957C50.0608 30.3802 50.1464 30.1736 50.2988 30.0212C50.4512 29.8688 50.6578 29.7832 50.8733 29.7832H55.3386C55.5541 29.7832 55.7608 29.8688 55.9132 30.0212C56.0655 30.1736 56.1511 30.3802 56.1511 30.5957V32.5284C57.6438 32.6341 59.1001 33.0382 60.4339 33.7167H66.8283C67.0438 33.7167 67.2504 33.8023 67.4028 33.9547C67.5552 34.1071 67.6408 34.3137 67.6408 34.5292C67.6408 34.7447 67.5552 34.9514 67.4028 35.1037C67.2504 35.2561 67.0438 35.3417 66.8283 35.3417H62.8166C65.145 37.4085 66.615 40.4221 66.615 43.773C66.615 45.926 66.0081 47.9395 64.9568 49.6525L67.2625 51.8898C67.4836 51.7893 67.7232 51.7355 67.9661 51.732C68.4399 51.7249 68.8835 51.9013 69.2208 52.2286L74.9656 57.8033C75.6634 58.4805 75.6803 59.5991 75.0032 60.2968ZM63.9981 50.9865C63.7815 51.2464 63.5533 51.4965 63.3142 51.7359L65.3367 53.6985L66.043 52.9707L63.9981 50.9865ZM51.6858 33.1077C52.6035 32.7925 53.5583 32.5979 54.5261 32.5288V31.4082H51.6858V33.1077ZM45.6923 43.773C45.6923 49.0934 50.0208 53.4219 55.3413 53.4219C60.6617 53.4219 64.9901 49.0934 64.9901 43.773C64.9901 38.4526 60.6617 34.1242 55.3413 34.1242C50.0208 34.1242 45.6923 38.4526 45.6923 43.773ZM48.1015 52.4079C47.0295 51.508 46.1331 50.4176 45.4576 49.1918H44.3214V63.375H48.1015V52.4079ZM57.911 54.7511C57.0686 54.9481 56.2063 55.0473 55.3412 55.0469C54.9323 55.0469 54.5287 55.0244 54.1309 54.9818V63.375H57.911V54.7511ZM73.834 58.9693L68.0892 53.3947C68.0634 53.3698 68.0289 53.3561 67.9931 53.3567H67.9908C67.9726 53.3566 67.9547 53.3602 67.9379 53.3672C67.9212 53.3742 67.9061 53.3845 67.8934 53.3975L65.8192 55.5351C65.7872 55.5681 65.7809 55.6069 65.7813 55.6336C65.7817 55.6603 65.7891 55.6988 65.822 55.7309L71.567 61.3057C71.6201 61.3572 71.7116 61.3557 71.763 61.3028L73.8371 59.1652C73.8884 59.1123 73.887 59.0207 73.834 58.9693ZM39.9172 40.8937V64.1875C39.9172 64.403 39.8316 64.6097 39.6792 64.762C39.5268 64.9144 39.3202 65 39.1047 65H33.6995C33.484 65 33.2774 64.9144 33.125 64.762C32.9726 64.6097 32.887 64.403 32.887 64.1875V40.8937C32.887 40.6782 32.9726 40.4716 33.125 40.3192C33.2774 40.1668 33.484 40.0812 33.6995 40.0812H39.1047C39.5533 40.0812 39.9172 40.445 39.9172 40.8937ZM38.2922 41.7062H34.512V63.375H38.2922V41.7062ZM46.9116 43.773C46.9116 39.1249 50.6931 35.3433 55.3413 35.3433C59.9895 35.3433 63.771 39.1249 63.771 43.773C63.771 48.4211 59.9895 52.2027 55.3413 52.2027C50.6931 52.2027 46.9116 48.4211 46.9116 43.773ZM55.3413 50.5777C57.0272 50.5777 58.5707 49.96 59.7608 48.9408C59.3473 46.8506 57.514 45.3201 55.3413 45.3201C53.1685 45.3201 51.3353 46.8506 50.9218 48.9409C52.1118 49.96 53.6553 50.5777 55.3413 50.5777ZM55.3413 43.6951C56.3762 43.6951 57.2181 42.8531 57.2181 41.8182C57.2181 40.7832 56.3762 39.9413 55.3413 39.9413C54.3063 39.9413 53.4644 40.7832 53.4644 41.8182C53.4644 42.8531 54.3062 43.6951 55.3413 43.6951ZM48.5366 43.773C48.5366 45.1531 48.9506 46.4377 49.6596 47.5114C50.2531 46.0471 51.3905 44.8788 52.8128 44.2373C52.2105 43.608 51.8394 42.7559 51.8394 41.8182C51.8394 39.8871 53.4104 38.3163 55.3413 38.3163C57.2722 38.3163 58.8431 39.8872 58.8431 41.8182C58.8431 42.7559 58.4719 43.608 57.8698 44.2373C59.292 44.8788 60.4295 46.0471 61.023 47.5114C61.7318 46.4377 62.146 45.1532 62.146 43.773C62.146 40.0209 59.0934 36.9683 55.3413 36.9683C51.5891 36.9683 48.5366 40.0209 48.5366 43.773Z" fill="#90BAA8"/>
</svg>
