<svg width="99" height="78" viewBox="0 0 99 78" fill="none" xmlns="http://www.w3.org/2000/svg">
<rect x="0.5" width="98" height="78" rx="20" fill="#F4F4F4"/>
<path d="M24.3125 21.9375V56.875C24.3125 59.7919 26.4656 61.75 29.675 61.75H68.1875C68.6344 61.75 69 61.3844 69 60.9375V41.4375H67.375V60.125H29.675C27.8712 60.125 25.9375 59.2719 25.9375 56.875C25.9375 54.4781 28.0338 53.625 30 53.625H30.8125C31.2594 53.625 31.625 53.2594 31.625 52.8125V22.75H67.375V28.4375H69V21.9375C69 21.4906 68.6344 21.125 68.1875 21.125H31.625V16.25C31.625 15.8031 31.2594 15.4375 30.8125 15.4375H30C26.7013 15.4375 24.3125 18.1675 24.3125 21.9375ZM30 17.0625V52C28.3344 52 26.9288 52.4712 25.9375 53.2919V21.9375C25.9375 19.0694 27.6112 17.0625 30 17.0625Z" fill="#90BAA8"/>
<path d="M73.9725 29.1525C73.0544 28.2343 71.4456 28.2343 70.5275 29.1525L55.0169 44.6631C54.96 44.72 54.9194 44.7768 54.8787 44.8418L52.2706 49.5625H38.5312C36.5163 49.5625 34.875 51.2037 34.875 53.2187C34.875 55.2337 36.5163 56.875 38.5312 56.875H44.625V55.25H38.5312C37.9925 55.25 37.4759 55.036 37.0949 54.655C36.714 54.2741 36.5 53.7574 36.5 53.2187C36.5 52.68 36.714 52.1633 37.0949 51.7824C37.4759 51.4015 37.9925 51.1875 38.5312 51.1875H52.75C52.8881 51.1875 53.0181 51.155 53.14 51.09L58.275 48.2543C58.34 48.2218 58.405 48.1731 58.4538 48.1162L73.9644 32.6056C74.4208 32.1486 74.6772 31.529 74.6772 30.8831C74.6772 30.2371 74.4208 29.6176 73.9644 29.1606L73.9725 29.1525ZM57.3894 46.8812L54.8219 48.3031L56.2437 45.7356L68.2281 33.7512L69.3737 34.8968L57.3894 46.8812ZM72.8188 31.4518L70.5194 33.7512L69.3737 32.6056L71.6731 30.3062C71.9819 29.9975 72.5181 29.9975 72.8188 30.3062C73.1356 30.6231 73.1356 31.135 72.8188 31.4518Z" fill="#90BAA8"/>
<path d="M46.25 36.5625V44.6875C46.25 45.1344 46.6156 45.5 47.0625 45.5H51.125C51.5719 45.5 51.9375 45.1344 51.9375 44.6875V40.625H55.1875C55.6344 40.625 56 40.2594 56 39.8125V36.5625C56 36.1156 55.6344 35.75 55.1875 35.75H47.0625C46.6156 35.75 46.25 36.1156 46.25 36.5625ZM47.875 37.375H54.375V39H51.125C50.6781 39 50.3125 39.3656 50.3125 39.8125V43.875H47.875V37.375ZM60.0625 32.5C60.5094 32.5 60.875 32.1344 60.875 31.6875V25.1875C60.875 24.7406 60.5094 24.375 60.0625 24.375H51.9375C51.4906 24.375 51.125 24.7406 51.125 25.1875V31.6875C51.125 32.1344 51.4906 32.5 51.9375 32.5H60.0625ZM52.75 26H59.25V30.875H52.75V26ZM47.875 24.375H34.875C34.4281 24.375 34.0625 24.7406 34.0625 25.1875V36.5625C34.0625 37.0094 34.4281 37.375 34.875 37.375H43.8125C44.2594 37.375 44.625 37.0094 44.625 36.5625V34.125H47.875C48.3219 34.125 48.6875 33.7594 48.6875 33.3125V25.1875C48.6875 24.7406 48.3219 24.375 47.875 24.375ZM47.0625 32.5H43.8125C43.3656 32.5 43 32.8656 43 33.3125V35.75H35.6875V26H47.0625V32.5ZM46.25 55.25H47.875V56.875H46.25V55.25ZM34.0625 44.6875C34.0625 45.1344 34.4281 45.5 34.875 45.5H43.8125C44.2594 45.5 44.625 45.1344 44.625 44.6875V40.625C44.625 40.1781 44.2594 39.8125 43.8125 39.8125H34.875C34.4281 39.8125 34.0625 40.1781 34.0625 40.625V44.6875ZM35.6875 41.4375H43V43.875H35.6875V41.4375ZM60.0625 49.5625C59.6156 49.5625 59.25 49.9281 59.25 50.375V53.625H56C55.5531 53.625 55.1875 53.9906 55.1875 54.4375V57.6875C55.1875 58.1344 55.5531 58.5 56 58.5H64.125C64.5719 58.5 64.9375 58.1344 64.9375 57.6875V50.375C64.9375 49.9281 64.5719 49.5625 64.125 49.5625H60.0625ZM63.3125 56.875H56.8125V55.25H60.0625C60.5094 55.25 60.875 54.8844 60.875 54.4375V51.1875H63.3125V56.875Z" fill="#90BAA8"/>
</svg>
