<svg width="400" height="698" viewBox="0 0 400 698" fill="none" xmlns="http://www.w3.org/2000/svg">
<g clip-path="url(#clip0_717_3507)">
<path d="M400 0H0V668C0 684.569 13.4315 698 30 698H370C386.569 698 400 684.569 400 668V0Z" fill="#F0FDF7"/>
<path d="M145.955 392.324C145.955 459.329 200.373 513.65 267.5 513.65C334.627 513.65 389.045 459.329 389.045 392.324C389.045 325.319 334.627 271 267.5 271C200.373 271 145.955 325.319 145.955 392.324Z" fill="#90BAA8"/>
<g opacity="0.1">
<path d="M246.823 925.008H253.185V600.722C253.185 600.61 253.187 600.593 253.187 600.593L253.19 600.559C253.197 600.47 253.197 600.379 253.195 600.29C253.185 600.198 253.2 600.114 253.205 600.028C253.213 599.942 253.205 599.853 253.21 599.769C253.22 599.685 253.228 599.601 253.23 599.517L253.233 599.39C253.238 599.349 253.246 599.308 253.251 599.268C253.258 599.186 253.264 599.105 253.264 599.023C253.279 598.945 253.292 598.866 253.299 598.787C253.355 598.149 253.501 597.566 253.625 596.984C253.72 596.704 253.771 596.409 253.88 596.135C253.908 595.99 253.99 595.86 254.02 595.713C254.046 595.644 254.081 595.578 254.104 595.507C254.117 595.473 254.127 595.438 254.137 595.4C254.15 595.367 254.171 595.334 254.186 595.301C254.216 595.232 254.242 595.161 254.265 595.09C254.298 595.023 254.334 594.955 254.362 594.886C254.374 594.85 254.387 594.815 254.4 594.779C254.418 594.746 254.438 594.713 254.453 594.68C254.489 594.611 254.517 594.543 254.545 594.472C254.586 594.405 254.621 594.339 254.652 594.268C254.67 594.235 254.68 594.197 254.698 594.164C254.718 594.131 254.739 594.098 254.756 594.065C254.797 593.999 254.825 593.927 254.861 593.859C254.904 593.793 254.942 593.726 254.978 593.658C255.6 592.585 256.372 591.512 257.312 590.583C258.247 589.655 259.281 588.824 260.369 588.208C261.454 587.583 262.547 587.112 263.694 586.815C264.264 586.647 264.858 586.553 265.479 586.459C266.104 586.37 266.771 586.344 267.5 586.324C268.228 586.344 268.896 586.37 269.52 586.459C270.142 586.553 270.735 586.647 271.306 586.815C272.452 587.112 273.545 587.583 274.63 588.208C275.718 588.824 276.753 589.655 277.688 590.583C278.628 591.512 279.4 592.585 280.021 593.658C280.057 593.726 280.095 593.793 280.138 593.859C280.174 593.927 280.202 593.999 280.242 594.065C280.26 594.098 280.28 594.131 280.301 594.164C280.32 594.197 280.331 594.235 280.348 594.268C280.379 594.339 280.415 594.405 280.455 594.472C280.483 594.543 280.511 594.611 280.546 594.68C280.563 594.713 280.581 594.746 280.6 594.779C280.612 594.815 280.625 594.85 280.639 594.886C280.666 594.955 280.701 595.023 280.735 595.09C280.757 595.161 280.783 595.232 280.814 595.301C280.829 595.334 280.849 595.367 280.862 595.4C280.872 595.438 280.883 595.473 280.895 595.507C280.918 595.578 280.953 595.644 280.98 595.713C281.01 595.86 281.091 595.99 281.119 596.135C281.229 596.409 281.279 596.704 281.373 596.984C281.499 597.566 281.645 598.149 281.7 598.787C281.707 598.866 281.719 598.945 281.735 599.023C281.735 599.105 281.74 599.186 281.749 599.268C281.754 599.308 281.76 599.349 281.767 599.39L281.769 599.517C281.771 599.601 281.778 599.685 281.79 599.769C281.793 599.853 281.787 599.942 281.794 600.028C281.798 600.114 281.813 600.198 281.804 600.29C281.801 600.379 281.803 600.47 281.809 600.559L281.812 600.593C281.812 600.593 281.814 600.61 281.814 600.722V601.226V602.235V666.789V925.008H288.176V666.789V602.235V601.226V600.722C288.176 600.61 288.175 600.59 288.174 600.585L288.171 600.539C288.164 600.415 288.162 600.292 288.164 600.168C288.174 600.041 288.157 599.921 288.152 599.802C288.144 599.68 288.148 599.558 288.144 599.438C288.13 599.321 288.121 599.202 288.116 599.082L288.11 598.904L288.088 598.731C288.076 598.617 288.068 598.5 288.064 598.383C288.045 598.268 288.029 598.156 288.018 598.042C287.93 597.126 287.732 596.267 287.537 595.412C287.409 594.995 287.318 594.568 287.164 594.159C287.115 593.945 287.011 593.749 286.957 593.538C286.917 593.434 286.871 593.335 286.835 593.233L286.782 593.075C286.763 593.025 286.736 592.976 286.715 592.925C286.671 592.826 286.631 592.722 286.596 592.618C286.547 592.519 286.499 592.419 286.457 592.318L286.397 592.162L286.321 592.015C286.271 591.916 286.228 591.814 286.185 591.712C286.13 591.616 286.078 591.517 286.031 591.415C286.006 591.367 285.987 591.313 285.961 591.265L285.877 591.117C285.821 591.021 285.778 590.916 285.724 590.82C285.664 590.723 285.608 590.627 285.555 590.525C284.657 588.966 283.546 587.445 282.214 586.123C280.891 584.798 279.412 583.623 277.84 582.725C276.271 581.818 274.653 581.126 272.962 580.683C272.119 580.442 271.25 580.292 270.35 580.162C269.446 580.038 268.501 579.994 267.5 579.974C266.498 579.994 265.553 580.038 264.649 580.162C263.75 580.292 262.881 580.442 262.038 580.683C260.346 581.126 258.728 581.818 257.159 582.725C255.587 583.623 254.109 584.798 252.785 586.123C251.452 587.445 250.341 588.966 249.445 590.525C249.391 590.627 249.335 590.723 249.277 590.82C249.223 590.916 249.177 591.021 249.121 591.117L249.04 591.265C249.012 591.313 248.994 591.367 248.968 591.415C248.92 591.517 248.869 591.616 248.815 591.712C248.772 591.814 248.729 591.916 248.678 592.015L248.601 592.162L248.543 592.318C248.5 592.419 248.451 592.519 248.403 592.618C248.367 592.722 248.329 592.826 248.286 592.925C248.263 592.976 248.237 593.025 248.217 593.075L248.163 593.233C248.128 593.335 248.082 593.434 248.044 593.538C247.99 593.749 247.886 593.945 247.835 594.159C247.682 594.568 247.59 594.995 247.463 595.412C247.266 596.267 247.07 597.126 246.981 598.042C246.971 598.156 246.953 598.268 246.935 598.383C246.933 598.5 246.923 598.617 246.91 598.731L246.889 598.904L246.884 599.082C246.879 599.202 246.869 599.321 246.856 599.438C246.851 599.558 246.856 599.68 246.849 599.802C246.841 599.921 246.826 600.041 246.836 600.168C246.838 600.292 246.836 600.415 246.828 600.539L246.826 600.585C246.823 600.59 246.823 600.61 246.823 600.722V601.226V602.235V666.789V925.008Z" fill="#0C0C0C"/>
<path d="M235.775 925.008H242.137V600.722C242.137 600.613 242.137 600.59 242.139 600.58L242.142 600.524C242.149 600.374 242.152 600.226 242.149 600.076C242.142 599.926 242.157 599.781 242.165 599.634L242.175 599.196C242.19 599.052 242.2 598.909 242.208 598.764L242.216 598.548L242.241 598.337C242.256 598.194 242.267 598.052 242.272 597.91C242.295 597.772 242.312 597.633 242.328 597.493C242.44 596.374 242.674 595.311 242.921 594.255C243.077 593.737 243.194 593.21 243.382 592.702C243.446 592.44 243.568 592.196 243.64 591.934C243.688 591.806 243.744 591.684 243.79 591.555L243.856 591.364C243.879 591.3 243.912 591.239 243.938 591.176C243.991 591.051 244.04 590.927 244.086 590.797C244.144 590.675 244.203 590.553 244.256 590.426L244.333 590.235L244.424 590.052C244.486 589.93 244.539 589.805 244.593 589.678C244.659 589.558 244.723 589.436 244.781 589.312C244.812 589.251 244.837 589.187 244.87 589.126L244.972 588.946L245.161 588.579C245.232 588.46 245.301 588.34 245.367 588.218C246.47 586.298 247.831 584.45 249.448 582.837C251.061 581.22 252.865 579.791 254.796 578.685C256.719 577.571 258.727 576.716 260.818 576.167C261.86 575.87 262.935 575.681 264.041 575.521C265.147 575.371 266.296 575.315 267.501 575.295C268.706 575.315 269.855 575.371 270.96 575.521C272.066 575.681 273.141 575.87 274.183 576.167C276.275 576.716 278.282 577.571 280.206 578.685C282.136 579.791 283.941 581.22 285.552 582.837C287.172 584.45 288.532 586.298 289.635 588.218C289.699 588.34 289.768 588.46 289.841 588.579L290.03 588.946L290.132 589.126C290.165 589.187 290.189 589.251 290.22 589.312C290.279 589.436 290.342 589.558 290.408 589.678C290.462 589.805 290.517 589.93 290.577 590.052L290.67 590.235L290.746 590.426C290.798 590.553 290.857 590.675 290.915 590.797C290.961 590.927 291.01 591.051 291.064 591.176C291.09 591.239 291.121 591.3 291.146 591.364L291.212 591.555C291.258 591.684 291.313 591.806 291.362 591.934C291.433 592.196 291.554 592.44 291.62 592.702C291.807 593.21 291.926 593.737 292.08 594.255C292.327 595.311 292.563 596.374 292.675 597.493C292.689 597.633 292.708 597.772 292.729 597.91C292.735 598.052 292.746 598.194 292.76 598.337L292.786 598.548L292.794 598.764C292.8 598.909 292.811 599.052 292.826 599.196L292.838 599.634C292.844 599.781 292.861 599.926 292.852 600.076C292.851 600.226 292.853 600.374 292.86 600.524L292.863 600.58C292.864 600.59 292.865 600.613 292.865 600.722V601.226V602.235V666.789V925.008H299.227V666.789V602.235V601.226V600.722C299.227 600.613 299.226 600.587 299.225 600.572L299.222 600.504C299.215 600.32 299.212 600.137 299.213 599.954C299.221 599.769 299.203 599.588 299.195 599.408L299.179 598.866C299.163 598.688 299.15 598.51 299.141 598.332L299.129 598.062L299.099 597.8C299.082 597.622 299.068 597.447 299.059 597.269C299.033 597.096 299.01 596.923 298.993 596.748C298.848 595.354 298.561 594.011 298.244 592.684C298.055 592.03 297.896 591.367 297.666 590.726C297.578 590.395 297.434 590.085 297.338 589.757L297.152 589.281L297.066 589.04C297.035 588.958 296.997 588.882 296.965 588.803C296.898 588.646 296.835 588.488 296.775 588.328C296.703 588.17 296.631 588.015 296.564 587.857L296.467 587.621L296.352 587.389C296.277 587.234 296.208 587.077 296.139 586.919C296.056 586.769 295.978 586.614 295.903 586.459C295.865 586.382 295.832 586.303 295.792 586.227L295.666 586.001L295.427 585.538C295.337 585.391 295.251 585.24 295.169 585.088C293.791 582.68 292.091 580.383 290.08 578.377C288.078 576.365 285.83 574.59 283.417 573.202C281.008 571.806 278.478 570.733 275.839 570.036C274.525 569.665 273.172 569.421 271.791 569.227C270.408 569.039 268.978 568.965 267.501 568.945C266.023 568.965 264.594 569.039 263.211 569.227C261.83 569.421 260.477 569.665 259.162 570.036C256.523 570.733 253.993 571.806 251.583 573.202C249.171 574.59 246.924 576.365 244.921 578.377C242.911 580.383 241.212 582.68 239.831 585.088C239.75 585.24 239.665 585.391 239.574 585.538L239.337 586.001L239.209 586.227C239.169 586.303 239.136 586.382 239.097 586.459C239.023 586.614 238.945 586.769 238.863 586.919C238.794 587.077 238.725 587.234 238.649 587.389L238.534 587.621L238.438 587.857C238.371 588.015 238.297 588.17 238.226 588.328C238.168 588.488 238.104 588.646 238.038 588.803C238.004 588.882 237.966 588.958 237.936 589.04L237.849 589.281L237.663 589.757C237.569 590.085 237.424 590.395 237.334 590.726C237.105 591.367 236.947 592.03 236.756 592.684C236.44 594.011 236.155 595.354 236.01 596.748C235.992 596.923 235.969 597.096 235.943 597.269C235.933 597.447 235.921 597.622 235.903 597.8L235.872 598.062L235.862 598.332C235.852 598.51 235.839 598.688 235.821 598.866L235.806 599.408C235.798 599.588 235.78 599.769 235.788 599.954C235.791 600.137 235.785 600.32 235.78 600.504L235.778 600.572C235.775 600.587 235.775 600.613 235.775 600.722V601.226V602.235V666.789V925.008Z" fill="#0C0C0C"/>
<path d="M224.726 925.008H231.087V600.722C231.087 600.615 231.087 600.585 231.089 600.567L231.092 600.488C231.097 600.28 231.102 600.071 231.102 599.863C231.095 599.654 231.112 599.448 231.12 599.242L231.14 598.624C231.158 598.421 231.174 598.215 231.184 598.011L231.199 597.706L231.23 597.404C231.25 597.203 231.265 596.999 231.278 596.798C231.306 596.6 231.332 596.399 231.352 596.201C231.523 594.601 231.846 593.055 232.216 591.527C232.43 590.771 232.618 590.009 232.88 589.269C232.985 588.89 233.145 588.529 233.26 588.152L233.472 587.603L233.573 587.326C233.609 587.234 233.65 587.145 233.688 587.054C233.764 586.873 233.838 586.69 233.907 586.507C233.989 586.326 234.073 586.148 234.149 585.965L234.264 585.693L234.394 585.426C234.48 585.248 234.559 585.068 234.641 584.887C234.733 584.712 234.824 584.536 234.908 584.358C234.954 584.269 234.992 584.177 235.038 584.089L235.184 583.829L235.459 583.3C235.561 583.127 235.657 582.954 235.754 582.779C237.336 580.015 239.285 577.39 241.583 575.089C243.873 572.787 246.449 570.758 249.218 569.164C251.983 567.556 254.902 566.321 257.941 565.517C259.457 565.095 261.011 564.807 262.598 564.586C264.188 564.373 265.819 564.286 267.5 564.266C269.181 564.286 270.812 564.373 272.402 564.586C273.989 564.807 275.543 565.095 277.059 565.517C280.098 566.321 283.017 567.556 285.782 569.164C288.552 570.758 291.126 572.787 293.416 575.089C295.714 577.39 297.664 580.015 299.247 582.779C299.342 582.954 299.44 583.127 299.542 583.3L299.817 583.829L299.961 584.089C300.008 584.177 300.046 584.269 300.09 584.358C300.177 584.536 300.267 584.712 300.36 584.887C300.441 585.068 300.521 585.248 300.607 585.426L300.738 585.693L300.851 585.965C300.928 586.148 301.011 586.326 301.093 586.507C301.163 586.69 301.235 586.873 301.312 587.054C301.35 587.145 301.392 587.234 301.427 587.326L301.528 587.603L301.741 588.152C301.855 588.529 302.016 588.89 302.12 589.269C302.383 590.009 302.571 590.771 302.785 591.527C303.153 593.055 303.479 594.601 303.647 596.201C303.668 596.399 303.694 596.6 303.722 596.798C303.734 596.999 303.75 597.203 303.77 597.404L303.802 597.706L303.817 598.011C303.827 598.215 303.842 598.421 303.86 598.624L303.88 599.242C303.888 599.448 303.907 599.654 303.899 599.863C303.898 600.071 303.902 600.28 303.909 600.488L303.912 600.567C303.913 600.585 303.914 600.615 303.913 600.722V601.226V602.235V666.789V925.008H310.275V666.789V602.235V601.226V600.722C310.276 600.618 310.275 600.582 310.274 600.56L310.271 600.468C310.263 600.226 310.26 599.982 310.26 599.741C310.267 599.497 310.247 599.257 310.237 599.016L310.213 598.294C310.193 598.055 310.177 597.818 310.164 597.579L310.145 597.221L310.109 596.867C310.086 596.631 310.067 596.394 310.051 596.158C310.02 595.924 309.99 595.69 309.965 595.456C309.764 593.579 309.387 591.756 308.95 589.955C308.7 589.063 308.472 588.165 308.166 587.29C308.04 586.845 307.856 586.418 307.718 585.978L307.467 585.329L307.348 585.001C307.306 584.895 307.257 584.788 307.213 584.681C307.123 584.467 307.037 584.251 306.953 584.035L306.67 583.399L306.534 583.076L306.382 582.764L306.09 582.128C305.981 581.922 305.876 581.713 305.774 581.505C305.722 581.401 305.675 581.291 305.621 581.189L305.453 580.882L305.127 580.259C305.009 580.058 304.893 579.854 304.781 579.648C302.922 576.396 300.633 573.324 297.944 570.628C295.263 567.93 292.246 565.558 288.992 563.681C285.743 561.792 282.3 560.337 278.715 559.386C276.929 558.89 275.095 558.549 273.232 558.29C271.365 558.041 269.454 557.936 267.5 557.913C265.546 557.936 263.635 558.041 261.768 558.29C259.906 558.549 258.071 558.89 256.285 559.386C252.701 560.337 249.257 561.792 246.008 563.681C242.755 565.558 239.736 567.93 237.056 570.628C234.366 573.324 232.078 576.396 230.218 579.648C230.106 579.854 229.991 580.058 229.872 580.259L229.548 580.882L229.38 581.189C229.324 581.291 229.278 581.401 229.227 581.505C229.125 581.713 229.018 581.922 228.911 582.128L228.618 582.764L228.465 583.076L228.33 583.399L228.048 584.035C227.964 584.251 227.877 584.467 227.788 584.681C227.744 584.788 227.694 584.895 227.653 585.001L227.533 585.329L227.283 585.978C227.146 586.418 226.96 586.845 226.835 587.29C226.527 588.165 226.3 589.063 226.05 589.955C225.612 591.756 225.238 593.579 225.034 595.456C225.011 595.69 224.98 595.924 224.95 596.158C224.934 596.394 224.914 596.631 224.891 596.867L224.855 597.221L224.835 597.579C224.822 597.818 224.807 598.055 224.787 598.294L224.764 599.016C224.754 599.257 224.733 599.497 224.741 599.741C224.741 599.982 224.736 600.226 224.731 600.468L224.726 600.56C224.726 600.582 224.726 600.618 224.726 600.722V601.226V602.235V666.789V925.008Z" fill="#0C0C0C"/>
<path d="M213.676 925.008H220.037V600.722C220.037 600.618 220.037 600.58 220.037 600.554L220.042 600.455C220.047 600.186 220.053 599.919 220.053 599.649C220.047 599.38 220.068 599.115 220.078 598.848L220.103 598.052C220.126 597.788 220.144 597.523 220.16 597.259L220.18 596.865L220.221 596.47C220.244 596.211 220.267 595.949 220.284 595.685C220.318 595.425 220.351 595.166 220.379 594.906C220.605 592.826 221.018 590.799 221.507 588.798C221.782 587.806 222.04 586.807 222.379 585.836C222.521 585.34 222.722 584.864 222.878 584.373L223.156 583.651L223.288 583.29C223.336 583.168 223.39 583.051 223.438 582.931C223.538 582.695 223.635 582.456 223.729 582.214L224.042 581.507L224.192 581.149L224.363 580.8L224.687 580.096C224.806 579.865 224.924 579.633 225.038 579.402C225.097 579.285 225.148 579.168 225.209 579.051L225.395 578.71L225.757 578.021C225.887 577.795 226.014 577.568 226.139 577.342C228.202 573.731 230.742 570.328 233.718 567.343C236.688 564.352 240.031 561.728 243.641 559.64C247.246 557.545 251.077 555.927 255.064 554.869C257.052 554.318 259.09 553.936 261.158 553.651C263.227 553.374 265.344 553.257 267.499 553.234C269.655 553.257 271.772 553.374 273.84 553.651C275.909 553.936 277.947 554.318 279.934 554.869C283.922 555.927 287.752 557.545 291.357 559.64C294.968 561.728 298.311 564.352 301.28 567.343C304.257 570.328 306.796 573.731 308.859 577.342C308.984 577.568 309.112 577.795 309.243 578.021L309.605 578.71L309.79 579.051C309.851 579.168 309.903 579.285 309.961 579.402C310.075 579.633 310.192 579.865 310.311 580.096L310.636 580.8L310.805 581.149L310.956 581.507L311.271 582.214C311.364 582.456 311.461 582.695 311.56 582.931C311.609 583.051 311.663 583.168 311.709 583.29L311.843 583.651L312.121 584.373C312.276 584.864 312.478 585.34 312.62 585.836C312.959 586.807 313.215 587.806 313.491 588.798C313.98 590.799 314.394 592.826 314.62 594.906C314.648 595.166 314.68 595.425 314.714 595.685C314.733 595.949 314.754 596.211 314.779 596.47L314.819 596.865L314.84 597.259C314.855 597.523 314.873 597.788 314.894 598.052L314.921 598.848C314.932 599.115 314.952 599.38 314.946 599.649C314.947 599.919 314.95 600.186 314.958 600.455L314.961 600.554C314.962 600.58 314.963 600.618 314.962 600.722V601.226V602.235V666.789V925.008H321.324V666.789V602.235V601.226V600.722L321.322 600.547L321.319 600.435L321.306 599.527C321.312 599.222 321.291 598.924 321.279 598.622L321.248 597.721L321.187 596.826L321.162 596.379L321.118 595.934L321.044 595.044L320.938 594.161C320.68 591.804 320.214 589.5 319.655 587.227C319.344 586.097 319.049 584.963 318.666 583.857C318.501 583.295 318.277 582.753 318.097 582.197L317.782 581.378L317.63 580.963L317.461 580.559L317.132 579.742L316.775 578.939L316.602 578.535L316.412 578.135L316.041 577.337L315.645 576.548C315.579 576.416 315.518 576.281 315.45 576.152L315.24 575.763L314.828 574.979L314.393 574.209C312.054 570.112 309.176 566.262 305.808 562.88C302.448 559.498 298.662 556.527 294.568 554.157C290.479 551.78 286.123 549.941 281.592 548.738C279.331 548.113 277.017 547.675 274.671 547.355C272.322 547.042 269.93 546.905 267.499 546.884C265.069 546.905 262.677 547.042 260.328 547.355C257.981 547.675 255.668 548.113 253.406 548.738C248.876 549.941 244.52 551.78 240.431 554.157C236.337 556.527 232.551 559.498 229.191 562.88C225.823 566.262 222.944 570.112 220.605 574.209L220.17 574.979L219.76 575.763L219.548 576.152C219.479 576.281 219.421 576.416 219.354 576.548L218.957 577.337L218.588 578.135L218.397 578.535L218.223 578.939L217.867 579.742L217.538 580.559L217.37 580.963L217.217 581.378L216.901 582.197C216.723 582.753 216.496 583.295 216.333 583.857C215.951 584.963 215.655 586.097 215.345 587.227C214.784 589.5 214.32 591.804 214.061 594.161L213.956 595.044L213.88 595.934L213.836 596.379L213.811 596.826L213.752 597.721L213.719 598.622C213.706 598.924 213.686 599.222 213.691 599.527L213.678 600.435L213.676 600.547V600.722V601.226V602.235V666.789V925.008Z" fill="#0C0C0C"/>
<path d="M202.626 925.008H208.989V600.542L208.992 600.42L209.007 599.435C209.002 599.107 209.023 598.782 209.035 598.456L209.071 597.48L209.137 596.508L209.163 596.023L209.211 595.54L209.293 594.573L209.407 593.615C209.69 591.051 210.192 588.544 210.803 586.069C211.14 584.839 211.463 583.605 211.878 582.402C212.059 581.79 212.301 581.2 212.5 580.592L212.841 579.699L213.007 579.252L213.19 578.809L213.55 577.922L213.937 577.047L214.125 576.607L214.334 576.172L214.737 575.302L215.167 574.445C215.239 574.303 215.305 574.156 215.379 574.016L215.608 573.591L216.057 572.742L216.528 571.902C219.07 567.445 222.199 563.266 225.855 559.594C229.503 555.92 233.617 552.695 238.068 550.119C242.514 547.533 247.255 545.532 252.187 544.219C254.65 543.54 257.167 543.065 259.718 542.716C262.27 542.376 264.869 542.226 267.501 542.205C270.132 542.226 272.731 542.376 275.284 542.716C277.834 543.065 280.352 543.54 282.814 544.219C287.747 545.532 292.489 547.533 296.934 550.119C301.385 552.695 305.498 555.92 309.146 559.594C312.802 563.266 315.93 567.445 318.473 571.902L318.945 572.742L319.394 573.591L319.621 574.016C319.696 574.156 319.762 574.303 319.834 574.445L320.265 575.302L320.668 576.172L320.875 576.607L321.064 577.047L321.451 577.922L321.81 578.809L321.993 579.252L322.16 579.699L322.502 580.592C322.7 581.2 322.941 581.79 323.122 582.402C323.537 583.605 323.862 584.839 324.198 586.069C324.808 588.544 325.312 591.051 325.595 593.615L325.709 594.573L325.79 595.54L325.837 596.023L325.865 596.508L325.93 597.48L325.965 598.456C325.978 598.782 326 599.107 325.994 599.435L326.008 600.42L326.011 600.542L326.013 600.722V601.226V602.235V666.789V925.008H332.375V666.789V602.235V601.226V600.722L332.373 600.534L332.37 600.399L332.355 599.313C332.36 598.95 332.337 598.591 332.323 598.23L332.283 597.149L332.212 596.074L332.181 595.537L332.129 595.003L332.038 593.932L331.913 592.869C331.597 590.031 331.042 587.244 330.362 584.498C329.991 583.132 329.627 581.764 329.168 580.424C328.965 579.745 328.701 579.089 328.479 578.418L328.1 577.423L327.914 576.927L327.711 576.437L327.311 575.452L326.882 574.479L326.672 573.99L326.443 573.51L325.995 572.543L325.517 571.592C325.438 571.432 325.363 571.272 325.281 571.114L325.029 570.644L324.531 569.7L324.008 568.772C321.188 563.826 317.721 559.203 313.674 555.134C309.635 551.063 305.079 547.495 300.145 544.636C295.216 541.768 289.948 539.548 284.47 538.088C281.736 537.335 278.942 536.804 276.114 536.42C273.284 536.044 270.407 535.876 267.501 535.855C264.594 535.876 261.718 536.044 258.887 536.42C256.059 536.804 253.265 537.335 250.531 538.088C245.054 539.548 239.785 541.768 234.858 544.636C229.921 547.495 225.366 551.063 221.328 555.134C217.279 559.203 213.815 563.826 210.994 568.772L210.47 569.7L209.973 570.644L209.721 571.114C209.639 571.272 209.563 571.432 209.484 571.592L209.007 572.543L208.559 573.51L208.33 573.99L208.118 574.479L207.69 575.452L207.29 576.437L207.086 576.927L206.903 577.423L206.523 578.418C206.302 579.089 206.037 579.745 205.833 580.424C205.374 581.764 205.01 583.132 204.638 584.498C203.958 587.244 203.405 590.031 203.089 592.869L202.964 593.932L202.873 595.003L202.822 595.537L202.789 596.074L202.717 597.149L202.679 598.23C202.664 598.591 202.641 598.95 202.646 599.313L202.631 600.399L202.628 600.534L202.626 600.722V601.226V602.235V666.789V925.008Z" fill="#0C0C0C"/>
<path d="M191.576 925.008H197.937V600.722L197.94 600.529L197.942 600.384L197.958 599.222C197.955 598.835 197.978 598.449 197.993 598.065L198.037 596.908L198.113 595.756L198.146 595.179L198.2 594.606L198.299 593.459L198.431 592.32C198.773 589.279 199.366 586.288 200.098 583.338C200.492 581.874 200.887 580.406 201.379 578.967C201.598 578.24 201.878 577.533 202.118 576.813L202.525 575.747L202.724 575.213L202.941 574.687L203.371 573.632L203.832 572.587L204.057 572.063L204.301 571.546L204.783 570.511L205.295 569.489C205.381 569.319 205.46 569.146 205.549 568.978L205.82 568.472L206.355 567.462L206.915 566.463C209.939 561.161 213.656 556.207 217.99 551.846C222.318 547.485 227.199 543.662 232.491 540.596C237.777 537.519 243.43 535.138 249.31 533.569C252.245 532.763 255.243 532.191 258.275 531.782C261.312 531.377 264.392 531.197 267.5 531.176C270.608 531.197 273.688 531.377 276.725 531.782C279.757 532.191 282.755 532.763 285.69 533.569C291.569 535.138 297.224 537.519 302.509 540.596C307.801 543.662 312.683 547.485 317.01 551.846C321.344 556.207 325.062 561.161 328.085 566.463L328.646 567.462L329.181 568.472L329.451 568.978C329.539 569.146 329.619 569.319 329.704 569.489L330.216 570.511L330.698 571.546L330.943 572.063L331.169 572.587L331.629 573.632L332.058 574.687L332.275 575.213L332.475 575.747L332.882 576.813C333.122 577.533 333.403 578.24 333.622 578.967C334.113 580.406 334.506 581.874 334.903 583.338C335.635 586.288 336.228 589.279 336.567 592.32L336.701 593.459L336.8 594.606L336.854 595.179L336.888 595.756L336.964 596.908L337.007 598.065C337.022 598.449 337.045 598.835 337.041 599.222L337.057 600.384L337.06 600.529L337.062 600.722V601.226V602.235V666.789V925.008H343.424V666.789V602.235V601.226V600.722L343.419 600.364L343.402 599.1C343.405 598.678 343.381 598.258 343.365 597.839L343.317 596.577L343.235 595.323L343.197 594.695L343.139 594.07L343.031 592.819L342.885 591.575C342.513 588.256 341.869 584.989 341.067 581.769C340.636 580.165 340.203 578.563 339.667 576.991C339.427 576.198 339.122 575.422 338.859 574.636L338.415 573.471L338.196 572.889L337.959 572.314L337.489 571.16L336.987 570.018L336.74 569.446L336.473 568.884L335.946 567.752L335.388 566.636C335.294 566.45 335.206 566.262 335.11 566.076L334.816 565.527L334.232 564.421L333.62 563.333C330.32 557.542 326.263 552.141 321.537 547.385C316.82 542.63 311.495 538.462 305.72 535.113C299.951 531.754 293.771 529.152 287.346 527.438C284.139 526.561 280.863 525.933 277.553 525.485C274.241 525.045 270.883 524.847 267.5 524.827C264.117 524.847 260.759 525.045 257.447 525.485C254.135 525.933 250.861 526.561 247.654 527.438C241.229 529.152 235.048 531.754 229.281 535.113C223.505 538.462 218.181 542.63 213.462 547.385C208.737 552.141 204.681 557.542 201.379 563.333L200.768 564.421L200.184 565.527L199.889 566.076C199.794 566.262 199.705 566.45 199.611 566.636L199.053 567.752L198.526 568.884L198.261 569.446L198.014 570.018L197.509 571.16L197.04 572.314L196.804 572.889L196.584 573.471L196.141 574.636C195.879 575.422 195.573 576.198 195.334 576.991C194.796 578.563 194.365 580.165 193.932 581.769C193.132 584.989 192.488 588.256 192.113 591.575L191.968 592.819L191.861 594.07L191.803 594.695L191.764 595.323L191.683 596.577L191.634 597.839C191.619 598.258 191.594 598.678 191.599 599.1L191.581 600.364L191.576 600.722V601.226V602.235V666.789V925.008Z" fill="#0C0C0C"/>
<path d="M180.528 925.008H186.889V600.722L186.895 600.348L186.912 599.008C186.91 598.561 186.935 598.116 186.951 597.671L187.002 596.336L187.088 595.003L187.129 594.337L187.193 593.676L187.307 592.348L187.46 591.028C187.858 587.504 188.54 584.033 189.391 580.61C189.85 578.908 190.311 577.205 190.879 575.534C191.136 574.69 191.457 573.868 191.74 573.032L192.209 571.796L192.443 571.178L192.695 570.565L193.192 569.339L193.727 568.126L193.99 567.518L194.272 566.921L194.833 565.718L195.427 564.533C195.526 564.337 195.618 564.136 195.719 563.94L196.033 563.355L196.654 562.183L197.304 561.026C200.807 554.877 205.113 549.145 210.126 544.1C215.132 539.049 220.783 534.632 226.915 531.075C233.042 527.507 239.607 524.743 246.435 522.922C249.841 521.988 253.321 521.32 256.837 520.847C260.353 520.379 263.917 520.168 267.501 520.147C271.086 520.168 274.65 520.379 278.166 520.847C281.68 521.32 285.16 521.988 288.568 522.922C295.394 524.743 301.961 527.507 308.086 531.075C314.218 534.632 319.87 539.049 324.875 544.1C329.889 549.145 334.195 554.877 337.699 561.026L338.349 562.183L338.97 563.355L339.282 563.94C339.384 564.136 339.478 564.337 339.577 564.533L340.17 565.718L340.729 566.921L341.013 567.518L341.276 568.126L341.809 569.339L342.308 570.565L342.559 571.178L342.792 571.796L343.264 573.032C343.545 573.868 343.867 574.69 344.123 575.534C344.691 577.205 345.153 578.908 345.61 580.61C346.463 584.033 347.146 587.504 347.542 591.028L347.696 592.348L347.811 593.676L347.872 594.337L347.913 595.003L348 596.336L348.051 597.671C348.068 598.116 348.093 598.561 348.09 599.008L348.108 600.348L348.113 600.722V601.226V602.235V666.789V925.008H354.475V666.789V602.235V601.226V600.722L354.47 600.328L354.451 598.886C354.453 598.403 354.427 597.925 354.409 597.444L354.353 596.005L354.26 594.571L354.216 593.854L354.15 593.136L354.025 591.707L353.86 590.283C353.431 586.481 352.697 582.736 351.774 579.038C351.282 577.199 350.781 575.361 350.169 573.558C349.89 572.648 349.546 571.757 349.24 570.857L348.732 569.52L348.48 568.853L348.209 568.192L347.669 566.867L347.094 565.558L346.81 564.904L346.505 564.256L345.9 562.961L345.26 561.68C345.153 561.466 345.051 561.252 344.941 561.039L344.605 560.408L343.935 559.142L343.234 557.893C339.453 551.258 334.808 545.079 329.403 539.639C324.007 534.195 317.913 529.432 311.297 525.592C304.688 521.742 297.596 518.759 290.224 516.791C286.544 515.784 282.788 515.059 278.996 514.55C275.2 514.047 271.361 513.818 267.501 513.797C263.642 513.818 259.802 514.047 256.006 514.55C252.215 515.059 248.458 515.784 244.779 516.791C237.406 518.759 230.314 521.742 223.705 525.592C217.089 529.432 210.995 534.195 205.599 539.639C200.196 545.079 195.549 551.258 191.768 557.893L191.068 559.142L190.398 560.408L190.061 561.039C189.952 561.252 189.85 561.466 189.743 561.68L189.103 562.961L188.497 564.256L188.194 564.904L187.908 565.558L187.333 566.867L186.793 568.192L186.523 568.853L186.27 569.52L185.763 570.857C185.458 571.757 185.111 572.648 184.833 573.558C184.222 575.361 183.72 577.199 183.228 579.038C182.306 582.736 181.573 586.481 181.142 590.283L180.976 591.707L180.852 593.136L180.785 593.854L180.742 594.571L180.65 596.005L180.594 597.444C180.576 597.925 180.548 598.403 180.551 598.886L180.533 600.328L180.528 600.722V601.226V602.235V666.789V925.008Z" fill="#0C0C0C"/>
<path d="M169.476 925.008H175.838V600.722L175.843 600.315L175.863 598.795C175.861 598.289 175.886 597.783 175.907 597.279L175.965 595.763L176.062 594.25L176.11 593.495L176.179 592.742L176.312 591.234L176.485 589.734C176.938 585.729 177.71 581.777 178.683 577.881C179.201 575.941 179.733 574.003 180.375 572.101C180.671 571.14 181.032 570.204 181.356 569.253L181.891 567.844L182.158 567.139L182.444 566.443L183.012 565.047L183.618 563.666L183.919 562.977L184.24 562.292L184.877 560.927L185.552 559.577L185.888 558.903L186.242 558.236L186.948 556.904L187.687 555.587C191.671 548.591 196.568 542.083 202.259 536.351C207.945 530.617 214.365 525.6 221.338 521.551C228.303 517.495 235.781 514.349 243.556 512.272C247.436 511.211 251.398 510.448 255.392 509.909C259.392 509.38 263.438 509.139 267.499 509.118C271.559 509.139 275.605 509.38 279.605 509.909C283.601 510.448 287.561 511.211 291.442 512.272C299.215 514.349 306.695 517.495 313.659 521.551C320.632 525.6 327.053 530.617 332.737 536.351C338.43 542.083 343.325 548.591 347.309 555.587L348.048 556.904L348.755 558.236L349.109 558.903L349.445 559.577L350.119 560.927L350.757 562.292L351.079 562.977L351.379 563.666L351.985 565.047L352.554 566.443L352.839 567.139L353.106 567.844L353.641 569.253C353.965 570.204 354.326 571.14 354.621 572.101C355.265 574.003 355.796 575.941 356.314 577.881C357.288 581.777 358.06 585.729 358.512 589.734L358.686 591.234L358.818 592.742L358.887 593.495L358.934 594.25L359.032 595.763L359.091 597.279C359.11 597.783 359.137 598.289 359.135 598.795L359.155 600.315L359.16 600.722V601.226V602.235V666.789V925.008H365.521V666.789V602.235V601.226V600.722L365.517 600.295L365.495 598.673C365.497 598.131 365.469 597.592 365.449 597.053L365.385 595.433L365.282 593.818L365.231 593.009L365.157 592.206L365.016 590.596L364.831 588.989C364.345 584.709 363.522 580.48 362.478 576.309C361.925 574.234 361.355 572.159 360.667 570.125C360.35 569.098 359.965 568.093 359.618 567.076L359.045 565.568L358.76 564.815L358.455 564.067L357.846 562.575L357.198 561.1L356.875 560.36L356.532 559.63L355.849 558.168L355.129 556.723L354.768 556.001L354.39 555.289L353.634 553.862L352.844 552.456C348.583 544.972 343.349 538.02 337.265 531.891C331.19 525.76 324.326 520.399 316.87 516.068C309.421 511.73 301.417 508.363 293.099 506.141C288.945 505.006 284.708 504.187 280.433 503.613C276.158 503.048 271.835 502.786 267.499 502.766C263.162 502.786 258.839 503.048 254.564 503.613C250.289 504.187 246.053 505.006 241.898 506.141C233.58 508.363 225.575 511.73 218.128 516.068C210.671 520.399 203.808 525.76 197.732 531.891C191.648 538.02 186.413 544.972 182.153 552.456L181.364 553.862L180.607 555.289L180.23 556.001L179.868 556.723L179.147 558.168L178.464 559.63L178.12 560.36L177.799 561.1L177.152 562.575L176.541 564.067L176.238 564.815L175.952 565.568L175.379 567.076C175.033 568.093 174.648 569.098 174.33 570.125C173.642 572.159 173.071 574.234 172.518 576.309C171.476 580.48 170.653 584.709 170.167 588.989L169.981 590.596L169.841 592.206L169.767 593.009L169.716 593.818L169.611 595.433L169.548 597.053C169.527 597.592 169.499 598.131 169.502 598.673L169.481 600.295L169.476 600.722V601.226V602.235V666.789V925.008Z" fill="#0C0C0C"/>
<path d="M158.426 925.008H164.79V600.722L164.795 600.28L164.815 598.581C164.815 598.014 164.843 597.449 164.864 596.885L164.933 595.191L165.04 593.5L165.093 592.653L165.17 591.809L165.32 590.123L165.513 588.442C166.023 583.956 166.884 579.521 167.98 575.152C168.558 572.976 169.157 570.801 169.878 568.668C170.209 567.592 170.611 566.537 170.976 565.471L171.577 563.892L171.877 563.101L172.196 562.32L172.835 560.754L173.513 559.208L173.852 558.432L174.211 557.667L174.927 556.136L175.681 554.623L176.061 553.865L176.456 553.117L177.248 551.625L178.076 550.147C182.542 542.307 188.024 535.024 194.396 528.605C200.76 522.182 207.949 516.567 215.763 512.03C223.569 507.481 231.96 503.954 240.678 501.624C245.032 500.434 249.475 499.575 253.954 498.974C258.435 498.382 262.962 498.107 267.5 498.087C272.037 498.107 276.564 498.382 281.046 498.974C285.525 499.575 289.966 500.434 294.32 501.624C303.04 503.954 311.432 507.481 319.237 512.03C327.05 516.567 334.24 522.182 340.603 528.605C346.974 535.024 352.459 542.307 356.923 550.147L357.751 551.625L358.544 553.117L358.94 553.865L359.318 554.623L360.073 556.136L360.789 557.667L361.148 558.432L361.486 559.208L362.165 560.754L362.804 562.32L363.123 563.101L363.423 563.892L364.023 565.471C364.388 566.537 364.79 567.592 365.123 568.668C365.843 570.801 366.442 572.976 367.021 575.152C368.116 579.521 368.977 583.956 369.487 588.442L369.681 590.123L369.829 591.809L369.906 592.653L369.959 593.5L370.068 595.191L370.134 596.885C370.156 597.449 370.184 598.014 370.184 598.581L370.206 600.28L370.21 600.722V601.226V602.235V666.789V925.008H376.572V666.789V602.235V601.226V600.722L376.567 600.259L376.544 598.459C376.544 597.859 376.515 597.259 376.492 596.659L376.421 594.861L376.307 593.065L376.249 592.168L376.168 591.272L376.01 589.482L375.805 587.697C375.263 582.934 374.35 578.224 373.185 573.581C372.571 571.267 371.933 568.96 371.169 566.689C370.814 565.547 370.389 564.426 369.999 563.297L369.363 561.616L369.044 560.777L368.705 559.945L368.026 558.285L367.305 556.639L366.945 555.815L366.564 555.004L365.803 553.377L365.001 551.767L364.599 550.966L364.179 550.17C363.897 549.644 363.623 549.11 363.336 548.583L362.458 547.017C357.717 538.688 351.893 530.958 345.131 524.145C338.377 517.327 330.744 511.366 322.447 506.547C314.158 501.716 305.241 497.97 295.977 495.493C291.35 494.229 286.632 493.316 281.875 492.678C277.117 492.05 272.312 491.757 267.5 491.737C262.687 491.757 257.883 492.05 253.124 492.678C248.367 493.316 243.649 494.229 239.023 495.493C229.757 497.97 220.84 501.716 212.553 506.547C204.255 511.366 196.622 517.327 189.869 524.145C183.107 530.958 177.284 538.688 172.542 547.017L171.663 548.583C171.376 549.11 171.103 549.644 170.82 550.17L170.4 550.966L169.997 551.767L169.197 553.377L168.436 555.004L168.053 555.815L167.694 556.639L166.973 558.285L166.296 559.945L165.957 560.777L165.638 561.616L165.001 563.297C164.612 564.426 164.186 565.547 163.832 566.689C163.068 568.96 162.428 571.267 161.814 573.581C160.65 578.224 159.738 582.934 159.195 587.697L158.989 589.482L158.831 591.272L158.75 592.168L158.694 593.065L158.579 594.861L158.508 596.659C158.485 597.259 158.454 597.859 158.457 598.459L158.431 600.259L158.426 600.722V601.226V602.235V666.789V925.008Z" fill="#0C0C0C"/>
<path d="M147.378 925.008H153.739V601.226C153.739 600.888 153.739 600.547 153.744 600.244L153.77 598.367C153.77 597.742 153.8 597.119 153.823 596.493L153.897 594.619L154.017 592.747L154.078 591.812L154.162 590.878L154.328 589.009L154.539 587.148C155.107 582.181 156.058 577.266 157.273 572.424C159.769 562.753 163.509 553.395 168.464 544.71C173.409 536.023 179.483 527.962 186.532 520.857C193.574 513.749 201.535 507.537 210.189 502.507C218.833 497.469 228.137 493.56 237.803 490.974C242.631 489.659 247.553 488.703 252.513 488.039C257.478 487.383 262.487 487.078 267.501 487.058C272.514 487.078 277.523 487.383 282.487 488.039C287.448 488.703 292.371 489.659 297.198 490.974C306.864 493.56 316.169 497.469 324.813 502.507C333.467 507.537 341.427 513.749 348.468 520.857C355.519 527.962 361.592 536.023 366.537 544.71C371.492 553.395 375.233 562.753 377.728 572.424C378.944 577.266 379.894 582.181 380.461 587.148L380.675 589.009L380.84 590.878L380.924 591.812L380.984 592.747L381.103 594.619L381.178 596.493C381.201 597.119 381.231 597.742 381.232 598.367L381.256 600.244C381.262 600.547 381.261 600.888 381.261 601.226V602.235V666.789V925.008H387.623V666.789V602.235C387.62 601.564 387.628 600.882 387.617 600.224L387.593 598.245C387.592 597.584 387.56 596.926 387.536 596.267L387.457 594.288L387.331 592.315L387.267 591.326L387.179 590.342L387.004 588.371L386.779 586.403C386.18 581.159 385.178 575.969 383.892 570.852C381.258 560.634 377.303 550.75 372.071 541.577C366.85 532.405 360.437 523.896 352.996 516.396C345.564 508.892 337.161 502.336 328.023 497.024C318.895 491.704 309.066 487.574 298.855 484.843C293.755 483.454 288.556 482.445 283.317 481.743C278.076 481.051 272.789 480.728 267.501 480.708C262.212 480.728 256.925 481.051 251.685 481.743C246.445 482.445 241.247 483.454 236.147 484.843C225.936 487.574 216.105 491.704 206.977 497.024C197.841 502.336 189.436 508.892 182.005 516.396C174.563 523.896 168.151 532.405 162.928 541.577C157.698 550.75 153.744 560.634 151.11 570.852C149.824 575.969 148.822 581.159 148.221 586.403L147.997 588.371L147.821 590.342L147.734 591.326L147.671 592.315L147.543 594.288L147.464 596.267C147.441 596.926 147.411 597.584 147.408 598.245L147.383 600.224C147.373 600.882 147.38 601.564 147.378 602.235V666.789V925.008Z" fill="#0C0C0C"/>
<path d="M136.328 925.008H142.69V602.235C142.692 601.559 142.685 600.898 142.695 600.209L142.72 598.154C142.723 597.47 142.754 596.786 142.782 596.099L142.863 594.047L142.993 591.995L143.059 590.97L143.151 589.945L143.332 587.898L143.566 585.856C144.19 580.406 145.23 575.01 146.567 569.695C149.303 559.076 153.415 548.802 158.852 539.271C164.276 529.737 170.938 520.9 178.667 513.108C186.389 505.314 195.117 498.504 204.612 492.986C214.097 487.457 224.313 483.165 234.926 480.324C240.226 478.882 245.629 477.832 251.073 477.105C256.518 476.385 262.01 476.049 267.5 476.029C272.99 476.049 278.483 476.385 283.928 477.105C289.371 477.832 294.775 478.882 300.075 480.324C310.688 483.165 320.904 487.457 330.389 492.986C339.883 498.504 348.612 505.314 356.333 513.108C364.061 520.9 370.724 529.737 376.149 539.271C381.584 548.802 385.697 559.076 388.433 569.695C389.771 575.01 390.811 580.406 391.434 585.856L391.668 587.898L391.85 589.945L391.941 590.97L392.008 591.995L392.138 594.047L392.22 596.099C392.246 596.786 392.277 597.47 392.279 598.154L392.305 600.209C392.315 600.898 392.308 601.559 392.31 602.235V666.789V925.008H398.672V666.789V602.235V601.226L398.667 600.188L398.64 598.032C398.637 597.312 398.605 596.592 398.578 595.873L398.491 593.716L398.355 591.562L398.284 590.484L398.189 589.408L397.997 587.257L397.752 585.111C397.096 579.386 396.005 573.713 394.597 568.124C391.721 556.957 387.396 546.157 381.684 536.138C375.983 526.118 368.98 516.836 360.861 508.648C352.749 500.459 343.577 493.303 333.599 487.503C323.631 481.692 312.889 477.181 301.731 474.193C296.159 472.677 290.478 471.571 284.757 470.808C279.033 470.05 273.263 469.699 267.5 469.679C261.738 469.699 255.967 470.05 250.243 470.808C244.523 471.571 238.842 472.677 233.271 474.193C222.112 477.181 211.369 481.692 201.402 487.503C191.423 493.303 182.252 500.459 174.14 508.648C166.021 516.836 159.018 526.118 153.316 536.138C147.604 546.157 143.278 556.957 140.402 568.124C138.996 573.713 137.905 579.386 137.248 585.111L137.004 587.257L136.813 589.408L136.716 590.484L136.647 591.562L136.509 593.716L136.423 595.873C136.395 596.592 136.364 597.312 136.362 598.032L136.334 600.188L136.328 601.226V602.235V666.789V925.008Z" fill="#0C0C0C"/>
<path d="M125.279 925.008H131.64V601.226L131.645 600.176L131.673 597.94C131.676 597.195 131.709 596.453 131.737 595.707L131.829 593.475L131.969 591.242L132.043 590.128L132.14 589.014L132.338 586.784L132.593 584.562C133.273 578.634 134.402 572.754 135.862 566.964C138.84 555.398 143.324 544.209 149.237 533.831C155.142 523.453 162.395 513.841 170.802 505.362C179.202 496.882 188.702 489.471 199.035 483.462C209.36 477.443 220.488 472.771 232.047 469.677C237.822 468.105 243.705 466.958 249.631 466.17C255.559 465.387 261.533 465.02 267.5 465C273.466 465.02 279.44 465.387 285.368 466.17C291.293 466.958 297.178 468.105 302.951 469.677C314.511 472.771 325.639 477.443 335.964 483.462C346.299 489.471 355.797 496.882 364.197 505.362C372.604 513.841 379.856 523.453 385.761 533.831C391.677 544.209 396.159 555.398 399.139 566.964C400.597 572.754 401.727 578.634 402.407 584.562L402.66 586.784L402.859 589.014L402.958 590.128L403.031 591.242L403.172 593.475L403.262 595.707C403.29 596.453 403.323 597.195 403.326 597.94L403.354 600.176L403.359 601.226V602.235V666.789V925.008H409.721V666.789V602.235V601.226L409.716 600.155L409.687 597.818C409.683 597.04 409.649 596.259 409.62 595.481C409.589 594.703 409.564 593.922 409.525 593.144L409.378 590.81L409.301 589.642L409.198 588.475L408.99 586.146L408.725 583.816C408.012 577.612 406.831 571.457 405.303 565.392C402.184 553.28 397.488 541.565 391.296 530.701C385.114 519.835 377.523 509.775 368.725 500.902C359.934 492.024 349.993 484.271 339.174 477.979C328.366 471.678 316.712 466.785 304.607 463.545C298.562 461.9 292.4 460.7 286.197 459.873C279.993 459.052 273.739 458.67 267.5 458.65C261.261 458.67 255.006 459.052 248.803 459.873C242.599 460.7 236.437 461.9 230.391 463.545C218.287 466.785 206.634 471.678 195.825 477.979C185.005 484.271 175.064 492.024 166.275 500.902C157.476 509.775 149.886 519.835 143.703 530.701C137.512 541.565 132.815 553.28 129.696 565.392C128.168 571.457 126.988 577.612 126.275 583.816L126.01 586.146L125.801 588.475L125.699 589.642L125.62 590.81L125.475 593.144C125.434 593.922 125.411 594.703 125.381 595.481C125.35 596.259 125.317 597.04 125.312 597.818L125.284 600.155L125.279 601.226V602.235V666.789V925.008Z" fill="#0C0C0C"/>
<path d="M114.229 925.008H120.59V601.226L120.596 600.14L120.626 597.727C120.629 596.923 120.664 596.119 120.695 595.316C120.725 594.51 120.751 593.706 120.792 592.903L120.945 590.492L121.024 589.284L121.128 588.081L121.345 585.673L121.617 583.27C122.356 576.859 123.574 570.501 125.153 564.235C128.376 551.721 133.229 539.614 139.624 528.392C146.011 517.167 153.852 506.779 162.937 497.614C172.017 488.446 182.284 480.441 193.46 473.941C204.624 467.431 216.664 462.376 229.17 459.026C235.417 457.33 241.783 456.087 248.191 455.232C254.6 454.385 261.056 453.991 267.499 453.971C273.942 453.991 280.399 454.385 286.808 455.232C293.215 456.087 299.581 457.33 305.827 459.026C318.334 462.376 330.374 467.431 341.539 473.941C352.714 480.441 362.982 488.446 372.06 497.614C381.147 506.779 388.988 517.167 395.374 528.392C401.769 539.614 406.623 551.721 409.844 564.235C411.424 570.501 412.642 576.859 413.38 583.27L413.653 585.673L413.869 588.081L413.974 589.284L414.054 590.492L414.206 592.903C414.246 593.706 414.272 594.51 414.304 595.316C414.334 596.119 414.369 596.923 414.373 597.727L414.403 600.14L414.408 601.226V602.235V666.789V925.008H420.77V666.789V602.235V601.226L420.764 600.12L420.733 597.605C420.729 596.765 420.693 595.926 420.662 595.09C420.628 594.25 420.601 593.411 420.559 592.572L420.401 590.057L420.317 588.801L420.208 587.544L419.982 585.032L419.698 582.525C418.928 575.836 417.658 569.202 416.008 562.664C412.647 549.603 407.581 536.969 400.908 525.261C394.246 513.551 386.066 502.715 376.588 493.153C367.119 483.589 356.409 475.241 344.749 468.458C333.101 461.666 320.535 456.392 307.484 452.895C300.965 451.125 294.323 449.828 287.638 448.938C280.951 448.053 274.214 447.639 267.499 447.619C260.783 447.639 254.048 448.053 247.36 448.938C240.675 449.828 234.033 451.125 227.514 452.895C214.463 456.392 201.898 461.666 190.25 468.458C178.59 475.241 167.879 483.589 158.41 493.153C148.933 502.715 140.752 513.551 134.09 525.261C127.418 536.969 122.351 549.603 118.991 562.664C117.34 569.202 116.071 575.836 115.299 582.525L115.016 585.032L114.79 587.544L114.68 588.801L114.596 590.057L114.438 592.572C114.397 593.411 114.369 594.25 114.336 595.09C114.306 595.926 114.27 596.765 114.265 597.605L114.234 600.12L114.229 601.226V602.235V666.789V925.008Z" fill="#0C0C0C"/>
<path d="M103.179 925.008H109.543V601.226L109.548 600.104L109.578 597.513C109.583 596.651 109.622 595.786 109.652 594.922C109.688 594.057 109.716 593.195 109.759 592.33L109.922 589.739L110.009 588.442L110.121 587.148L110.353 584.559L110.646 581.975C111.441 575.084 112.748 568.246 114.449 561.507C117.912 548.044 123.137 535.021 130.013 522.955C136.879 510.883 145.309 499.719 155.074 489.868C164.831 480.011 175.867 471.408 187.885 464.418C199.889 457.419 212.841 451.982 226.295 448.376C233.016 446.553 239.861 445.215 246.75 444.297C253.641 443.387 260.581 442.96 267.5 442.939C274.419 442.96 281.358 443.387 288.25 444.297C295.14 445.215 301.986 446.553 308.706 448.376C322.158 451.982 335.112 457.419 347.116 464.418C359.132 471.408 370.169 480.011 379.926 489.868C389.691 499.719 398.122 510.883 404.988 522.955C411.864 535.021 417.088 548.044 420.551 561.507C422.252 568.246 423.56 575.084 424.354 581.975L424.647 584.559L424.88 587.148L424.993 588.442L425.079 589.739L425.242 592.33C425.285 593.195 425.313 594.057 425.348 594.922C425.38 595.786 425.416 596.651 425.421 597.513L425.453 600.104L425.459 601.226V602.235V666.789V925.008H431.82V666.789V602.235V601.226L431.815 600.084L431.782 597.391C431.776 596.493 431.739 595.596 431.705 594.695C431.67 593.798 431.64 592.9 431.595 592L431.426 589.304L431.336 587.959L431.219 586.611L430.977 583.921L430.672 581.23C429.845 574.064 428.486 566.946 426.715 559.935C423.112 545.926 417.675 532.377 410.522 519.822C403.38 507.265 394.61 495.653 384.454 485.407C374.307 475.157 362.826 466.208 350.326 458.935C337.838 451.654 324.36 445.996 310.362 442.245C303.37 440.348 296.247 438.955 289.08 438.001C281.911 437.055 274.692 436.61 267.5 436.59C260.308 436.61 253.091 437.055 245.922 438.001C238.753 438.955 231.63 440.348 224.639 442.245C210.64 445.996 197.163 451.654 184.675 458.935C172.173 466.208 160.694 475.157 150.547 485.407C140.389 495.653 131.62 507.265 124.479 519.822C117.326 532.377 111.889 545.926 108.284 559.935C106.514 566.946 105.156 574.064 104.328 581.23L104.025 583.921L103.783 586.611L103.665 587.959L103.574 589.304L103.405 592C103.36 592.9 103.329 593.798 103.296 594.695C103.263 595.596 103.225 596.493 103.219 597.391L103.186 600.084L103.179 601.226V602.235V666.789V925.008Z" fill="#0C0C0C"/>
<path d="M92.1307 925.008H98.4921V601.226L98.4972 600.069L98.5329 597.299C98.538 596.376 98.5761 595.453 98.6118 594.53C98.6475 593.604 98.6781 592.681 98.7239 591.758L98.8997 588.986L98.9914 587.6L99.1112 586.217L99.3608 583.448L99.6742 580.683C100.525 573.311 101.921 565.99 103.745 558.778C107.45 544.367 113.044 530.429 120.402 517.515C127.746 504.599 136.768 492.658 147.21 482.119C157.645 471.579 169.453 462.375 182.309 454.897C195.154 447.405 209.021 441.586 223.42 437.729C230.612 435.776 237.939 434.344 245.311 433.362C252.684 432.388 260.108 431.931 267.501 431.91C274.894 431.931 282.318 432.388 289.692 433.362C297.063 434.344 304.391 435.776 311.584 437.729C325.983 441.586 339.848 447.405 352.693 454.897C365.549 462.375 377.356 471.579 387.792 482.119C398.236 492.658 407.255 504.599 414.601 517.515C421.958 530.429 427.553 544.367 431.258 558.778C433.081 565.99 434.477 573.311 435.329 580.683L435.641 583.448L435.891 586.217L436.011 587.6L436.104 588.986L436.277 591.758C436.324 592.681 436.355 593.604 436.391 594.53C436.425 595.453 436.464 596.376 436.47 597.299L436.504 600.069L436.509 601.226V602.235V666.789V925.008H442.871V666.789V602.235V601.226L442.866 600.048L442.83 597.177C442.824 596.221 442.784 595.262 442.749 594.304C442.711 593.345 442.679 592.386 442.631 591.428L442.451 588.554L442.354 587.117L442.23 585.68L441.971 582.807L441.647 579.938C440.763 572.289 439.314 564.69 437.422 557.206C433.577 542.249 427.769 527.784 420.136 514.385C412.513 500.981 403.155 488.591 392.32 477.659C381.493 466.721 369.244 457.175 355.903 449.414C342.575 441.64 328.184 435.603 313.24 431.598C305.775 429.571 298.17 428.083 290.521 427.066C282.87 426.056 275.169 425.581 267.501 425.561C259.833 425.581 252.131 426.056 244.481 427.066C236.833 428.083 229.228 429.571 221.761 431.598C206.817 435.603 192.428 441.64 179.099 449.414C165.759 457.175 153.508 466.721 142.683 477.659C131.848 488.591 122.488 500.981 114.866 514.385C107.233 527.784 101.424 542.249 97.58 557.206C95.6872 564.69 94.2401 572.289 93.3561 579.938L93.0325 582.807L92.7727 585.68L92.6479 587.117L92.5511 588.554L92.3727 591.428C92.3243 592.386 92.2912 593.345 92.253 594.304C92.2173 595.262 92.1791 596.221 92.1715 597.177L92.1358 600.048L92.1307 601.226V602.235V666.789V925.008Z" fill="#0C0C0C"/>
<path d="M81.081 925.008H87.4424V601.226L87.4475 600.036L87.4832 597.086C87.4908 596.104 87.5315 595.12 87.5672 594.136C87.6054 593.152 87.6411 592.17 87.6895 591.186L87.8729 588.234L87.9723 586.759L88.0997 585.284L88.3672 582.334L88.6983 579.389C89.6078 571.536 91.0931 563.734 93.037 556.049C96.9858 540.69 102.95 525.833 110.789 512.076C118.615 498.313 128.222 485.596 139.345 474.373C150.46 463.144 163.035 453.345 176.734 445.373C190.417 437.393 205.196 431.191 220.54 427.079C228.206 424.999 236.014 423.47 243.869 422.428C251.726 421.39 259.631 420.902 267.5 420.881C275.37 420.902 283.276 421.39 291.132 422.428C298.985 423.47 306.794 424.999 314.46 427.079C329.806 431.191 344.584 437.393 358.268 445.373C371.965 453.345 384.541 463.144 395.656 474.373C406.779 485.596 416.387 498.313 424.213 512.076C432.05 525.833 438.015 540.69 441.963 556.049C443.907 563.734 445.393 571.536 446.301 579.389L446.634 582.334L446.9 585.284L447.028 586.759L447.127 588.234L447.311 591.186C447.361 592.17 447.394 593.152 447.433 594.136C447.469 595.12 447.509 596.104 447.516 597.086L447.553 600.036L447.558 601.226V602.235V666.789V925.008H453.92V666.789V602.235V601.226L453.915 600.015L453.877 596.964C453.869 595.946 453.828 594.929 453.791 593.91C453.751 592.892 453.716 591.875 453.665 590.855L453.474 587.801L453.371 586.273L453.239 584.747L452.963 581.696L452.619 578.644C451.679 570.514 450.141 562.435 448.127 554.478C444.04 538.574 437.862 523.189 429.748 508.945C421.645 494.697 411.697 481.532 400.184 469.91C388.678 458.289 375.659 448.145 361.478 439.89C347.31 431.628 332.007 425.207 316.116 420.948C308.178 418.794 300.093 417.212 291.961 416.131C283.828 415.058 275.645 414.552 267.5 414.532C259.356 414.552 251.173 415.058 243.041 416.131C234.909 417.212 226.823 418.794 218.884 420.948C202.995 425.207 187.691 431.628 173.524 439.89C159.341 448.145 146.323 458.289 134.818 469.91C123.303 481.532 113.357 494.697 105.253 508.945C97.1386 523.189 90.9606 538.574 86.8743 554.478C84.8591 562.435 83.3229 570.514 82.3828 578.644L82.0388 581.696L81.7612 584.747L81.6313 586.273L81.5268 587.801L81.3357 590.855C81.2848 591.875 81.2491 592.892 81.2109 593.91C81.1727 594.929 81.132 595.946 81.1243 596.964L81.0861 600.015L81.081 601.226V602.235V666.789V925.008Z" fill="#0C0C0C"/>
<path d="M70.0313 925.008H76.3927V601.226L76.3978 600L76.436 596.872C76.4437 595.832 76.487 594.787 76.5252 593.744C76.5659 592.699 76.6016 591.656 76.6551 590.614L76.8487 587.481L76.9557 585.917L77.0907 584.35L77.3735 581.223L77.7251 578.097C78.6906 569.761 80.265 561.479 82.3312 553.318C86.522 537.013 92.858 521.241 101.173 506.639C109.481 492.029 119.679 478.536 131.48 466.625C143.273 454.711 156.62 444.313 171.156 435.852C172.061 435.313 172.975 434.797 173.895 434.286C174.812 433.774 175.729 433.258 176.654 432.76C178.514 431.776 180.369 430.781 182.259 429.858C186.022 427.969 189.864 426.237 193.746 424.602C195.695 423.798 197.644 423 199.618 422.265C201.585 421.504 203.575 420.81 205.567 420.116C209.559 418.766 213.587 417.512 217.663 416.431C225.803 414.224 234.093 412.599 242.429 411.493C250.764 410.392 259.154 409.873 267.5 409.852C275.846 409.873 284.234 410.392 292.572 411.493C300.908 412.599 309.197 414.224 317.336 416.431C321.411 417.512 325.44 418.766 329.433 420.116C331.424 420.81 333.414 421.504 335.38 422.265C337.355 423 339.305 423.798 341.254 424.602C345.135 426.237 348.978 427.969 352.739 429.858C354.631 430.781 356.485 431.776 358.345 432.76C359.271 433.258 360.186 433.774 361.105 434.286C362.024 434.797 362.94 435.313 363.843 435.852C378.381 444.313 391.726 454.711 403.519 466.625C415.321 478.536 425.519 492.029 433.825 506.639C442.143 521.241 448.479 537.013 452.669 553.318C454.733 561.479 456.309 569.761 457.274 578.097L457.626 581.223L457.91 584.35L458.044 585.917L458.15 587.481L458.345 590.614C458.398 591.656 458.434 592.699 458.475 593.744C458.513 594.787 458.555 595.832 458.563 596.872L458.601 600L458.607 601.226V602.235V666.789V925.008H464.969V666.789V602.235V601.226L464.963 599.98L464.924 596.75C464.915 595.674 464.872 594.596 464.833 593.518C464.791 592.44 464.753 591.361 464.699 590.283L464.497 587.049L464.387 585.431L464.249 583.814L463.956 580.582L463.592 577.352C462.594 568.741 460.967 560.179 458.833 551.749C454.503 534.897 447.954 518.596 439.36 503.506C430.777 488.411 420.24 474.47 408.048 462.164C395.863 449.854 382.075 439.112 367.053 430.369C366.12 429.815 365.174 429.281 364.224 428.752C363.275 428.223 362.329 427.689 361.372 427.173C359.45 426.158 357.534 425.131 355.579 424.175C351.693 422.222 347.722 420.434 343.71 418.743C341.697 417.914 339.682 417.09 337.64 416.329C335.609 415.544 333.552 414.824 331.494 414.109C327.368 412.713 323.204 411.416 318.992 410.3C310.581 408.019 302.015 406.338 293.401 405.196C284.786 404.06 276.121 403.52 267.5 403.5C258.879 403.52 250.214 404.06 241.598 405.196C232.985 406.338 224.42 408.019 216.007 410.3C211.796 411.416 207.633 412.713 203.506 414.109C201.448 414.824 199.392 415.544 197.359 416.329C195.318 417.09 193.303 417.914 191.29 418.743C187.278 420.434 183.306 422.222 179.421 424.175C177.464 425.131 175.549 426.158 173.628 427.173C172.67 427.689 171.725 428.223 170.774 428.752C169.827 429.281 168.879 429.815 167.946 430.369C152.926 439.112 139.135 449.854 126.953 462.164C114.76 474.47 104.223 488.411 95.6399 503.506C87.0443 518.596 80.4969 534.897 76.1659 551.749C74.031 560.179 72.4057 568.741 71.407 577.352L71.0427 580.582L70.7497 583.814L70.6121 585.431L70.5026 587.049L70.3013 590.283C70.2453 591.361 70.2096 592.44 70.1663 593.518C70.1281 594.596 70.0848 595.674 70.0746 596.75L70.0364 599.98L70.0313 601.226V602.235V666.789V925.008Z" fill="#0C0C0C"/>
<path d="M58.9815 925.008H65.3429V601.226L65.348 599.964L65.3887 596.658C65.3964 595.557 65.4397 594.454 65.4805 593.35C65.5238 592.246 65.562 591.145 65.618 590.042L65.8244 586.731L65.9365 585.075L66.0792 583.42L66.3798 580.109L66.7517 576.803C67.7733 567.989 69.4369 559.223 71.6253 550.59C76.0556 533.335 82.7635 516.648 91.5605 501.199C100.347 485.746 111.134 471.474 123.615 458.876C136.088 446.276 150.202 435.28 165.582 426.328C166.537 425.761 167.505 425.215 168.476 424.673C169.449 424.131 170.417 423.585 171.395 423.058C173.365 422.018 175.326 420.965 177.326 419.989C181.305 417.99 185.371 416.156 189.478 414.427C191.539 413.578 193.603 412.734 195.694 411.956C197.773 411.152 199.88 410.414 201.987 409.682C206.211 408.253 210.473 406.925 214.786 405.781C223.397 403.447 232.169 401.728 240.986 400.558C249.806 399.393 258.677 398.841 267.499 398.821C276.321 398.841 285.192 399.393 294.012 400.558C302.83 401.728 311.6 403.447 320.212 405.781C324.524 406.925 328.787 408.253 333.012 409.682C335.119 410.414 337.225 411.152 339.305 411.956C341.395 412.734 343.458 413.578 345.519 414.427C349.627 416.156 353.692 417.99 357.671 419.989C359.673 420.965 361.635 422.018 363.602 423.058C364.581 423.585 365.55 424.131 366.522 424.673C367.494 425.215 368.462 425.761 369.418 426.328C384.796 435.28 398.911 446.276 411.383 458.876C423.864 471.474 434.65 485.746 443.438 501.199C452.235 516.648 458.942 533.335 463.374 550.59C465.56 559.223 467.225 567.989 468.247 576.803L468.619 580.109L468.919 583.42L469.061 585.075L469.173 586.731L469.379 590.042C469.435 591.145 469.474 592.246 469.517 593.35C469.557 594.454 469.6 595.557 469.61 596.658L469.65 599.964L469.656 601.226V602.235V666.789V925.008H476.018V666.789V602.235L476.012 599.944L475.971 596.536C475.961 595.402 475.916 594.263 475.874 593.124C475.831 591.987 475.79 590.85 475.732 589.711L475.52 586.296L475.404 584.589L475.258 582.883L474.948 579.47L474.565 576.058C473.51 566.966 471.794 557.924 469.538 549.018C464.966 531.22 458.046 514.003 448.972 498.069C439.908 482.127 428.783 467.408 415.911 454.416C403.048 441.421 388.491 430.079 372.628 420.848C371.642 420.261 370.644 419.696 369.641 419.139C368.638 418.58 367.639 418.018 366.629 417.471C364.6 416.398 362.576 415.315 360.512 414.305C356.407 412.245 352.213 410.353 347.976 408.568C345.849 407.693 343.721 406.824 341.565 406.02C339.419 405.189 337.247 404.431 335.073 403.673C330.715 402.198 326.317 400.83 321.869 399.65C312.984 397.242 303.937 395.467 294.841 394.261C285.744 393.061 276.597 392.491 267.499 392.471C258.401 392.491 249.253 393.061 240.158 394.261C231.06 395.467 222.014 397.242 213.13 399.65C208.682 400.83 204.282 402.198 199.923 403.673C197.75 404.431 195.58 405.189 193.435 406.02C191.277 406.824 189.15 407.693 187.022 408.568C182.786 410.353 178.592 412.245 174.485 414.305C172.422 415.315 170.399 416.398 168.369 417.471C167.36 418.018 166.359 418.58 165.357 419.139C164.354 419.696 163.355 420.261 162.369 420.848C146.508 430.079 131.95 441.421 119.087 454.416C106.214 467.408 95.0889 482.127 86.027 498.069C76.9524 514.003 70.0331 531.22 65.4601 549.018C63.2054 557.924 61.4883 566.966 60.4336 576.058L60.049 579.47L59.7407 582.883L59.5929 584.589L59.4783 586.296L59.2643 589.711C59.2083 590.85 59.1675 591.987 59.1242 593.124C59.0809 594.263 59.0375 595.402 59.0274 596.536L58.9866 599.944L58.9815 602.235V666.789V925.008Z" fill="#0C0C0C"/>
<path d="M47.9312 925.008H54.2951V602.235L54.3002 599.929L54.341 596.445C54.3537 595.285 54.397 594.121 54.4403 592.958C54.4862 591.796 54.5269 590.632 54.5855 589.469L54.8021 585.978L54.9218 584.233L55.0696 582.486L55.388 578.997L55.7804 575.511C56.858 566.214 58.6133 556.967 60.9189 547.861C65.5938 529.658 72.6711 512.053 81.9495 495.76C91.2152 479.459 102.593 464.413 115.751 451.13C128.902 437.843 143.788 426.25 160.006 416.808C161.012 416.207 162.034 415.63 163.061 415.061C164.085 414.488 165.106 413.914 166.141 413.357C168.214 412.258 170.286 411.152 172.395 410.12C176.594 408.011 180.881 406.079 185.215 404.253C187.388 403.358 189.564 402.468 191.77 401.646C193.963 400.797 196.185 400.021 198.406 399.248C202.865 397.738 207.361 396.342 211.911 395.131C220.996 392.669 230.246 390.854 239.548 389.62C248.849 388.395 258.201 387.812 267.5 387.792C276.799 387.812 286.152 388.395 295.454 389.62C304.754 390.854 314.005 392.669 323.09 395.131C327.639 396.342 332.136 397.738 336.593 399.248C338.816 400.021 341.037 400.797 343.231 401.646C345.436 402.468 347.613 403.358 349.787 404.253C354.12 406.079 358.408 408.011 362.605 410.12C364.716 411.152 366.786 412.258 368.86 413.357C369.893 413.914 370.916 414.488 371.941 415.061C372.966 415.63 373.987 416.207 374.995 416.808C391.214 426.25 406.098 437.843 419.249 451.13C432.408 464.413 443.784 479.459 453.052 495.76C462.33 512.053 469.407 529.658 474.081 547.861C476.388 556.967 478.143 566.214 479.221 575.511L479.613 578.997L479.93 582.486L480.079 584.233L480.198 585.978L480.415 589.469C480.474 590.632 480.516 591.796 480.56 592.958C480.603 594.121 480.648 595.285 480.659 596.445L480.701 599.929L480.706 602.235V666.789V925.008H487.068V666.789V602.235L487.063 599.909L487.019 596.323C487.008 595.128 486.962 593.93 486.918 592.732C486.872 591.534 486.829 590.337 486.769 589.139L486.545 585.546L486.423 583.748L486.269 581.95L485.943 578.357L485.539 574.766C484.428 565.191 482.622 555.668 480.245 546.289C475.431 527.542 468.141 509.408 458.586 492.63C449.042 475.841 437.327 460.349 423.777 446.67C410.235 432.986 394.908 421.049 378.205 411.325C377.167 410.707 376.115 410.114 375.06 409.524C374.004 408.937 372.951 408.344 371.887 407.772C369.751 406.641 367.619 405.501 365.446 404.436C361.122 402.267 356.706 400.276 352.244 398.394C350.004 397.471 347.762 396.555 345.491 395.708C343.231 394.836 340.944 394.035 338.655 393.239C334.064 391.685 329.431 390.246 324.747 389C315.389 386.465 305.861 384.595 296.283 383.326C286.704 382.063 277.074 381.462 267.5 381.442C257.926 381.462 248.296 382.063 238.717 383.326C229.138 384.595 219.61 386.465 210.253 389C205.57 390.246 200.936 391.685 196.345 393.239C194.057 394.035 191.77 394.836 189.51 395.708C187.238 396.555 184.996 397.471 182.756 398.394C178.293 400.276 173.878 402.267 169.555 404.436C167.381 405.501 165.249 406.641 163.114 407.772C162.049 408.344 160.997 408.937 159.94 409.524C158.885 410.114 157.833 410.707 156.796 411.325C140.091 421.049 124.765 432.986 111.224 446.67C97.6734 460.349 85.9595 475.841 76.4135 492.63C66.86 509.408 59.5687 527.542 54.7563 546.289C52.3793 555.668 50.573 565.191 49.4623 574.766L49.0572 578.357L48.7311 581.95L48.5783 583.748L48.456 585.546L48.2318 589.139C48.1706 590.337 48.1273 591.534 48.0815 592.732C48.0382 593.93 47.9923 595.128 47.9821 596.323L47.9388 599.909L47.9312 602.235V666.789V925.008Z" fill="#0C0C0C"/>
<path d="M36.8815 925.008H43.243V602.235L43.2505 599.896L43.2939 596.231C43.3066 595.013 43.3525 593.787 43.3958 592.567C43.4442 591.344 43.4875 590.12 43.5512 588.897L43.778 585.225L43.9028 583.392L44.0607 581.556L44.3944 577.884L44.8046 574.217C45.9409 564.439 47.7853 554.712 50.2132 545.132C55.1301 525.981 62.5768 507.46 72.3368 490.323C82.084 473.176 94.0475 457.353 107.886 443.382C121.717 429.408 137.37 417.217 154.429 407.284C155.488 406.656 156.564 406.048 157.641 405.448C158.719 404.845 159.796 404.243 160.882 403.655C163.063 402.501 165.241 401.336 167.462 400.25C171.877 398.033 176.387 395.998 180.947 394.078C183.235 393.135 185.525 392.202 187.843 391.334C190.151 390.444 192.488 389.625 194.826 388.812C199.516 387.225 204.247 385.755 209.032 384.484C218.59 381.895 228.322 379.982 238.105 378.685C247.888 377.396 257.724 376.783 267.5 376.763C277.275 376.783 287.11 377.396 296.894 378.685C306.676 379.982 316.408 381.895 325.967 384.484C330.752 385.755 335.484 387.225 340.172 388.812C342.511 389.625 344.847 390.444 347.156 391.334C349.475 392.202 351.766 393.135 354.053 394.078C358.611 395.998 363.122 398.033 367.538 400.25C369.757 401.336 371.935 402.501 374.117 403.655C375.204 404.243 376.279 404.845 377.357 405.448C378.435 406.048 379.509 406.656 380.57 407.284C397.63 417.217 413.283 429.408 427.113 443.382C440.951 457.353 452.916 473.176 462.664 490.323C472.422 507.46 479.87 525.981 484.786 545.132C487.215 554.712 489.059 564.439 490.194 574.217L490.606 577.884L490.939 581.556L491.096 583.392L491.222 585.225L491.449 588.897C491.511 590.12 491.555 591.344 491.602 592.567C491.647 593.787 491.694 595.013 491.706 596.231L491.75 599.896L491.755 602.235V666.789V925.008H498.117V666.789V602.235L498.112 599.875L498.066 596.109C498.054 594.856 498.006 593.597 497.96 592.341C497.912 591.082 497.866 589.826 497.803 588.567L497.568 584.793L497.439 582.906L497.279 581.019L496.935 577.245L496.512 573.471C495.344 563.419 493.449 553.412 490.95 543.561C485.894 523.865 478.233 504.816 468.198 487.19C458.174 469.557 445.87 453.287 431.641 438.921C417.421 424.551 401.324 412.017 383.78 401.801C382.69 401.155 381.585 400.53 380.476 399.912C379.368 399.294 378.262 398.673 377.144 398.071C374.901 396.881 372.66 395.685 370.378 394.566C365.836 392.288 361.198 390.195 356.509 388.222C354.157 387.25 351.801 386.289 349.416 385.399C347.041 384.484 344.639 383.639 342.234 382.805C337.412 381.17 332.544 379.659 327.623 378.352C317.792 375.69 307.783 373.722 297.723 372.389C287.662 371.064 277.55 370.433 267.5 370.413C257.449 370.433 247.338 371.064 237.275 372.389C227.217 373.722 217.207 375.69 207.376 378.352C202.454 379.659 197.588 381.17 192.765 382.805C190.36 383.639 187.958 384.484 185.583 385.399C183.199 386.289 180.842 387.25 178.491 388.222C173.801 390.195 169.164 392.288 164.622 394.566C162.339 395.685 160.1 396.881 157.855 398.071C156.737 398.673 155.631 399.294 154.523 399.912C153.415 400.53 152.309 401.155 151.219 401.801C133.676 412.017 117.58 424.551 103.359 438.921C89.1281 453.287 76.8256 469.557 66.8008 487.19C56.7657 504.816 49.105 523.865 44.048 543.561C41.5513 553.412 39.6559 563.419 38.4865 573.471L38.0636 577.245L37.7197 581.019L37.5592 582.906L37.4318 584.793L37.1974 588.567C37.1337 589.826 37.0879 591.082 37.0395 592.341C36.9936 593.597 36.9452 594.856 36.9325 596.109L36.8866 599.875L36.8815 602.235V666.789V925.008Z" fill="#0C0C0C"/>
</g>
<g opacity="0.2">
<path d="M-28.2308 285.708C-112.47 285.708 -181 217.141 -181 132.856V-304H-179.458V132.856C-179.458 216.289 -111.618 284.165 -28.2308 284.165C55.1537 284.165 122.993 216.289 122.993 132.856V-304H124.535V132.856C124.535 217.141 56.0051 285.708 -28.2308 285.708Z" fill="#90BAA8"/>
<path d="M-28.2315 270.506C-104.092 270.506 -165.809 208.757 -165.809 132.856V-304H-164.266V132.856C-164.266 207.905 -103.243 268.963 -28.2315 268.963C46.7772 268.963 107.802 207.908 107.802 132.856V-304H109.344V132.856C109.344 208.757 47.6255 270.506 -28.2315 270.506Z" fill="#90BAA8"/>
<path d="M-28.2302 255.307C-95.7146 255.307 -150.615 200.376 -150.615 132.855V-304H-149.073V132.855C-149.073 199.524 -94.8631 253.763 -28.2302 253.763C38.3996 253.763 92.6092 199.524 92.6092 132.855V-304H94.1517V132.855C94.1517 200.376 39.2511 255.307 -28.2302 255.307Z" fill="#90BAA8"/>
<path d="M-28.2305 240.105C-87.336 240.105 -135.422 191.994 -135.422 132.856V-304H-133.879V132.856C-133.879 191.145 -86.4876 238.562 -28.2305 238.562C30.0236 238.562 77.4184 191.145 77.4184 132.856V-304H78.9609V132.856C78.9609 191.994 30.875 240.105 -28.2305 240.105Z" fill="#90BAA8"/>
<path d="M-28.2316 224.906C-78.9613 224.906 -120.232 183.613 -120.232 132.856V-304H-118.69V132.856C-118.69 182.761 -78.1098 223.363 -28.2316 223.363C21.6467 223.363 62.2237 182.761 62.2237 132.856V-304H63.7662V132.856C63.7662 183.613 22.4951 224.906 -28.2316 224.906Z" fill="#90BAA8"/>
<path d="M-28.2299 209.705C-48.6803 209.705 -67.9492 201.695 -82.4888 187.145C-97.0315 172.597 -105.037 153.318 -105.037 132.856V-304H-103.495V132.856C-103.495 174.381 -69.7324 208.162 -28.2299 208.162C13.2696 208.162 47.0349 174.381 47.0349 132.856V-304H48.5774V132.856C48.5774 153.318 40.5687 172.597 26.0291 187.145C11.4895 201.695 -7.78248 209.705 -28.2299 209.705Z" fill="#90BAA8"/>
<path d="M-28.231 194.506C-44.6216 194.506 -60.0774 188.073 -71.748 176.396C-83.4185 164.72 -89.8477 149.255 -89.8477 132.856V-304H-88.3052V132.856C-88.3052 166.001 -61.3577 192.963 -28.231 192.963C4.89268 192.963 31.8402 166.001 31.8402 132.856V-304H33.3827V132.856C33.3827 149.255 26.9566 164.72 15.286 176.396C3.61239 188.073 -11.8404 194.506 -28.231 194.506Z" fill="#90BAA8"/>
</g>
</g>
<defs>
<clipPath id="clip0_717_3507">
<path d="M400 0H0V668C0 684.569 13.4315 698 30 698H370C386.569 698 400 684.569 400 668V0Z" fill="white"/>
</clipPath>
</defs>
</svg>
