<svg width="87" height="52" viewBox="0 0 87 52" fill="none" xmlns="http://www.w3.org/2000/svg">
<path fill-rule="evenodd" clip-rule="evenodd" d="M62.7277 49.4699C70.4954 49.6581 78.4333 49.2817 85.8603 51.9506C86.303 52.108 86.79 51.8787 86.95 51.4339C87.1067 50.9891 86.8785 50.4998 86.4358 50.339C78.8351 47.6086 70.7167 47.9508 62.7686 47.7592C62.2987 47.7455 61.9071 48.1218 61.8968 48.594C61.8832 49.0662 62.2578 49.4562 62.7277 49.4699Z" fill="#0C0C0C"/>
<path fill-rule="evenodd" clip-rule="evenodd" d="M62.0312 38.1389C64.4524 35.9005 67.0949 34.2236 70.2891 33.3925C70.7455 33.2741 71.0179 32.8071 70.9021 32.35C70.7829 31.8928 70.3164 31.6181 69.8635 31.7365C66.39 32.6398 63.5125 34.447 60.8801 36.8794C60.5328 37.199 60.5089 37.7406 60.8291 38.0883C61.1458 38.4356 61.6872 38.4585 62.0312 38.1389Z" fill="#0C0C0C"/>
<path fill-rule="evenodd" clip-rule="evenodd" d="M55.2941 13.7013C56.4043 9.87768 58.5905 6.88657 61.9414 4.72654C62.3364 4.47163 62.4522 3.94198 62.1968 3.54474C61.9448 3.14749 61.4169 3.03184 61.0219 3.28674C57.3135 5.67841 54.8889 8.98842 53.6595 13.2219C53.5267 13.6749 53.789 14.1505 54.2385 14.2826C54.6914 14.415 55.1647 14.1543 55.2941 13.7013Z" fill="#0C0C0C"/>
<path fill-rule="evenodd" clip-rule="evenodd" d="M17.0353 8.51166C16.3746 9.2928 15.7821 10.1345 15.2781 11.0306C15.0533 11.4296 14.6583 12.2774 14.597 13.0045C14.5289 13.7791 14.7911 14.4327 15.4654 14.7769C16.361 15.2333 17.0761 15.1858 17.6278 14.9096C18.159 14.6445 18.5745 14.1234 18.8367 13.4247C19.3373 12.0892 19.2623 10.0483 19.0001 8.8836C19.705 8.15275 20.4781 7.48998 21.3056 6.90079C27.4693 2.51264 36.5105 4.1307 43.4677 10.6919C45.9025 12.9891 47.0739 17.8135 47.6835 23.0187C48.6336 31.1234 48.0921 40.1754 48.0172 42.8275C48.0002 43.4824 48.0615 43.8711 48.0955 43.9487C48.2556 44.3306 48.5382 44.4298 48.7357 44.4674C49.0218 44.5188 49.2499 44.464 49.4338 44.3682C49.6824 44.2368 49.8868 44.0055 49.9821 43.6487C50.0332 43.4516 50.0468 43.1772 50.04 42.8846C50.0332 42.6817 49.9923 42.46 50.0331 42.3146C50.2988 41.3833 50.6189 40.4738 50.9322 39.5578C51.9776 36.4788 53.3296 33.5934 54.8313 30.7114C59.6022 21.554 64.2165 11.8781 72.0386 4.90123C72.3893 4.58816 72.4234 4.04687 72.1101 3.69377C71.8002 3.34066 71.2622 3.30849 70.908 3.62191C62.9293 10.7367 58.189 20.5791 53.3227 29.9179C52.0457 32.3695 50.8743 34.8245 49.9003 37.3924C49.9991 32.8499 49.9616 26.5621 49.1341 20.9986C48.3986 16.0507 46.999 11.678 44.6323 9.44472C37.0111 2.25705 27.0708 0.697855 20.3214 5.50514C19.5995 6.01975 18.9116 6.58568 18.2714 7.19951C14.7401 0.792641 7.18014 -1.77525 0.498829 1.28909C0.069754 1.48515 -0.117537 1.99291 0.076568 2.42232C0.274079 2.85172 0.778053 3.04128 1.20713 2.84523C7.2278 0.0840321 14.0556 2.54823 17.0353 8.51166ZM17.529 10.6566C17.2532 11.0481 16.9978 11.4539 16.7594 11.8733C16.6334 12.0985 16.4155 12.5313 16.3235 12.9549C16.3031 13.0541 16.2997 13.2095 16.2997 13.2813C16.5347 13.3976 16.7185 13.4538 16.8684 13.3782C17.0557 13.2851 17.151 13.0661 17.243 12.8215C17.4746 12.2076 17.5495 11.394 17.529 10.6566Z" fill="#0C0C0C"/>
</svg>
